<svg xmlns="http://www.w3.org/2000/svg" width="1903.49" height="1903.54"><path fill="#888987" d="M849.2 1690.17a1015.45 1015.45 0 0 1-53.57-9.5c-60.35-12.72-122.34-34.46-178.52-62.6a871.37 871.37 0 0 1-49.29-27.22c-15.12-9.03-40.03-25.54-54.86-36.36a869.5 869.5 0 0 1-51.28-40.9c-17.17-14.97-40.45-37.56-43.75-42.43-3.25-4.78-25.34-30.3-36.72-42.42-3.5-3.73-6.66-6.61-7.01-6.4-.35.2-2.36-1.83-4.47-4.52-2.1-2.7-3.5-4.9-3.12-4.9.4 0 4.93 4.15 10.09 9.2 6.54 6.42 9.38 8.64 9.38 7.33 0-1.03-.96-3.84-2.12-6.24-1.17-2.41-1.9-4.6-1.63-4.87.27-.27 2.16.3 4.2 1.28 3.66 1.74 3.73 1.74 5.41-.5l1.7-2.26 2.84 2.96c1.56 1.63 2.54 3.42 2.2 4-.36.56.94 3.11 2.89 5.66 1.94 2.55 3.53 5.43 3.53 6.4 0 .98 1.36 3.65 3.01 5.94 2.93 4.04 5 5.3 5 3.04 0-.61-2.01-4-4.47-7.51-4.4-6.3-4.43-6.4-1.97-6.4 4.1 0 14.67 5.93 18.96 10.63 3.37 3.7 5 4.62 10.26 5.8 3.6.82 7.55 2.5 9.27 3.95 2.76 2.32 3.58 2.49 9.77 1.97 5.18-.43 7.68-.15 10.75 1.2 3.75 1.64 3.85 1.8 1.63 2.39-2.09.55-1.07 1.47 8.26 7.45 7 4.5 10.64 7.44 10.64 8.62 0 1.3 1 1.92 3.76 2.3 2.34.3 8.36 3.4 15.97 8.2 6.72 4.23 12.48 8.52 12.8 9.53.38 1.2 1.24 1.67 2.44 1.36 2.08-.55 6.61 1.56 12.67 5.88 3.34 2.38 5.43 3 11.52 3.45 9.2.68 30.44 7.4 37.47 11.86 2.76 1.75 7.17 4 9.82 5.02 2.65 1 6.03 3.27 7.51 5.03 3.36 3.98 15.46 12.76 20.44 14.83 2.54 1.06 3.93 2.39 4.38 4.2.48 1.9.06 3.47-1.49 5.56-1.49 2.02-1.96 3.69-1.52 5.43.55 2.2 1.18 2.51 4.94 2.51 3.69 0 4.23-.26 3.82-1.84-.45-1.7.2-1.84 8.23-1.69 7.34.14 8.95.47 10.14 2.1a14.47 14.47 0 0 1 1.98 4.19c.3 1.24.97 2.25 1.48 2.25.5 0 1.34-1.13 1.87-2.5.52-1.38 1.52-2.49 2.23-2.47.7.02 6.68 1.4 13.29 3.08 6.6 1.68 14.38 3.37 17.28 3.77 4.25.59 6.03 1.48 9.25 4.62l3.98 3.9 2.27-2.11c2.14-1.99 2.81-2.05 11.78-1.17 5.23.52 10.67 1.33 12.1 1.8 1.57.53 3.28.47 4.4-.15 2.63-1.48 15.97-.28 23.05 2.07 3.3 1.1 10.74 3.69 16.52 5.76 9.22 3.3 11.7 3.77 20.03 3.84l9.51.09 9.75 7c8.25 5.93 9.92 7.6 10.82 10.82.59 2.1.78 4.71.43 5.82-.36 1.12-2 3.57-3.67 5.47-2.5 2.84-2.92 4.02-2.41 6.7.42 2.28 0 4.4-1.4 7-1.1 2.06-2 3.9-2 4.1 0 .2 2.85 2.22 6.34 4.47 3.48 2.26 10.47 7.75 15.52 12.21 8.1 7.16 9.18 8.5 9.18 11.44 0 2.7.56 3.6 3 4.77 2.62 1.27 2.83 1.67 1.7 3.23-1.05 1.42-3 1.81-9.76 1.99-8.45.22-13.13 1.69-15.85 4.96-1.02 1.23-.91 1.67.57 2.44 1 .51 5.65 2.18 10.33 3.71 8.63 2.82 17.88 7.07 21.53 9.9 1.1.85 1.78 1.5 1.5 1.46l-6.5-.98zm481.15-109.52c0-.28.9-2.19 2-4.24 2.08-3.88 2.4-6.2 1.38-10.02-.4-1.5-1.85-2.62-4.36-3.37l-3.75-1.12-.6-8.15c-.32-4.48-1.3-10.23-2.19-12.79a26.2 26.2 0 0 0-5.29-8.33c-2.18-2.18-5.42-4.14-7.95-4.82-2.35-.63-4.27-1.7-4.27-2.37 0-2.35 2.9-14.92 4.94-21.39 1.52-4.81 3.51-8.2 7.68-13.02 3.09-3.58 6.47-7.86 7.5-9.51 1.05-1.65 1.9-4.15 1.9-5.55 0-1.68-1.4-3.92-4.07-6.51-3.75-3.64-4.04-4.28-3.48-7.84.45-2.84.04-5.04-1.5-8.24-2.28-4.7-7.7-9.57-13.23-11.88-1.89-.79-8.35-2.4-14.36-3.6-6-1.2-12.5-2.97-14.42-3.96a25.74 25.74 0 0 1-5.94-4.4c-2.39-2.55-2.4-2.68-.75-6.14a23.3 23.3 0 0 0 1.71-8.25c.02-2.94.96-6.62 2.5-9.73 2.7-5.49 3.15-11.68 1.12-15.33a15.2 15.2 0 0 0-4.22-4.25c-3.84-2.53-11.34-2.56-16.24-.05-2.05 1.04-6.38 3.96-9.63 6.5-6.13 4.75-14.77 8.62-19.29 8.62-1.55 0-4.13-1.39-6.4-3.44-2.1-1.9-5.64-4-7.86-4.66-3.12-.94-5.65-.95-11.07-.05-6.61 1.09-8.32 2-29.2 15.72-12.2 8.01-25.71 16.6-30.03 19.1-5.77 3.32-9.55 4.76-14.3 5.43-3.56.5-12.52 2.95-19.93 5.44-7.4 2.48-14.02 4.52-14.7 4.52-2.33 0-11.54 5.14-17.35 9.7l-5.82 4.54-15.55-1.6-15.56-1.6-14.18 10.33a1469.88 1469.88 0 0 1-89.88 60.5c-17.3 10.7-41.06 24.5-41.48 24.07-.16-.16 5.6-6.83 12.8-14.82a1410.1 1410.1 0 0 0 24.46-27.96l11.37-13.45-11.78-6.12c-23.2-12.06-46.74-26.35-76.37-46.36a999.04 999.04 0 0 1-63.89-47.05c-32.79-26.23-56.99-48.17-89.33-81-33.51-34-54.63-58.5-81.83-94.91a876.15 876.15 0 0 1-47.55-70.67c-13.6-22.68-25.05-43.99-33.27-61.89-13.48-29.33-28-68.78-37.49-101.83a1176 1176 0 0 1-16.54-66.1c-4.15-19.17-9.67-49.89-13.06-72.59-3.5-23.4-7.22-55.8-9.49-82.45-1.07-12.59-2.2-23.14-2.51-23.45-.32-.32-.58.18-.58 1.1 0 .91-.36 1.66-.81 1.66-.45 0-1.49-1.46-2.3-3.25-1.18-2.57-1.3-4.74-.6-10.27.99-7.75.08-21.53-1.42-21.53-.53 0-3.08 4.4-5.68 9.76-4.07 8.43-4.66 10.43-4.34 14.77.5 6.9.48 19.83-.05 27.04-.45 6.1-1.8 9.41-8.24 20.09-3.45 5.73-3.48 5.75-4.08 2.86-1.55-7.44-3-11.5-6.75-18.73-2.22-4.28-4.21-7.62-4.43-7.4-.21.2.06 3.49.61 7.29 1.27 8.78 1.34 28.14.1 28.9-1.2.75-10.09-10.22-13.01-16.06-1.24-2.48-2.96-8.13-3.83-12.55l-1.59-8.05 2.74-2.19c2.45-1.94 2.63-2.5 1.68-5-.59-1.54-1.07-6.17-1.07-10.27 0-7.04-.14-7.53-2.5-8.42-1.36-.52-5.42-1.25-9-1.62l-6.52-.66V722a25 25 0 0 1 1.09-6.85c.6-1.75 2.6-4.06 4.53-5.25a16.15 16.15 0 0 0 5.03-5.2l1.6-3.1 1.33 3.18c1.97 4.68 5.9 8.2 9.15 8.18 1.54-.01 3.48-.44 4.3-.96.83-.52 2.18-3.84 3-7.38 1.46-6.22 1.78-6.67 9.44-13.16 4.37-3.7 8.87-7.16 10.02-7.68 1.18-.54 4.36-5.37 7.36-11.17 2.91-5.61 5.28-10.62 5.26-11.13-.02-.5-.74-1.7-1.61-2.67-1.26-1.38-1.35-2.18-.45-3.86 1.04-1.95.93-2.07-1.42-1.48-1.4.35-2.56.3-2.56-.13 0-.42 1.15-2.73 2.55-5.12l2.54-4.34h-2.54c-1.4 0-2.55-.41-2.55-.92 0-2.63 1.46-4.09 4.11-4.09 1.6 0 2.93-.33 2.96-.75l.84-8.86c.71-7.4 1.14-8.58 4.89-13.5 2.59-3.39 3.7-5.63 3.02-6.05-1.06-.66-.7-4.4.8-8.28.62-1.62.46-1.74-1.19-.83-1.1.62-2.97 4.14-4.41 8.34-1.38 4-3.07 7.45-3.76 7.67-.69.22-1.54-.42-1.9-1.43a14.21 14.21 0 0 0-1.76-3.26c-.85-1.1-1.2-.47-1.6 2.93-.6 5.3-3 6.75-3 1.83-.01-4.84-1.69-10.14-4-12.61-1.1-1.2-2-3-2-4 0-1.02-.46-2.3-1.02-2.86-.69-.69-.66-2.03.07-4.14.88-2.52.77-3.6-.59-5.67-1.58-2.42-1.56-2.78.42-6.83a57.54 57.54 0 0 1 5.61-8.68l3.51-4.4v3.65c0 2.46.46 3.65 1.4 3.65.78 0 1.83-1.24 2.34-2.76.51-1.51.74-4.58.51-6.81-.38-3.68.06-4.63 4.56-10.02 5.02-6 21.9-21.98 30.25-28.64 5.86-4.68 12.6-8.05 15.34-7.66 1.5.22 2.27 1.13 2.48 2.92.26 2.21-.63 3.2-6 6.71a87.13 87.13 0 0 0-12.32 10.33c-6.04 6.24-5.2 5.92 4.67-1.78 2.94-2.3 7.16-4.65 9.38-5.24 5.67-1.5 11.02.1 12.98 3.9.83 1.6 1.5 4.61 1.48 6.7-.02 4.31-2.84 11.14-6.67 16.15l-2.58 3.39-2.18-2.74c-1.8-2.26-2.54-2.56-4.14-1.7-1.07.57-2.8 1.98-3.85 3.14-1.89 2.09-1.89 2.1 1.79 2.1 3.08 0 3.85.43 4.72 2.7.8 2.1.53 4.5-1.22 10.77-1.73 6.21-2.34 11.53-2.66 23.32-.23 8.4-.22 15.27.02 15.27s9.64-4.7 20.88-10.43a1761.3 1761.3 0 0 1 39.97-19.65c10.74-5.08 20.06-9.73 20.72-10.35.65-.62 3.44-9.64 6.2-20.06 3.74-14.08 5.9-20.34 8.46-24.47 2.75-4.43 3.27-6.05 2.61-8.1-.45-1.41-1.76-5.8-2.9-9.73l-2.07-7.17-5.24 1.4c-8.67 2.3-8.5 2.43-7.42-5.57.73-5.38 1.37-7.12 2.79-7.57 2.68-.85 5.9-5.35 5.9-8.27 0-1.4 1.18-4.56 2.64-7.04 2.8-4.79 2.62-4.8 6.06.5 1.05 1.62 1.2 1.46 1.25-1.42.03-1.8.31-3.26.62-3.26s1.42.46 2.46 1.02c1.5.8 2.12.6 2.94-.94a9.2 9.2 0 0 0 1.05-3.52c0-1.02-.91-1.57-2.62-1.57-2.34 0-2.54-.27-1.92-2.75.38-1.51 2.05-6.03 3.72-10.04 1.67-4 4.4-8.65 6.06-10.32 1.67-1.67 7.01-5.03 11.87-7.47 7.63-3.83 8.96-4.22 9.72-2.86.7 1.27 2.45-.24 8.8-7.6 5.97-6.92 7.92-9.9 7.92-12.1 0-2.43 3.03-5.94 18.53-21.52 10.19-10.24 21.1-20.39 24.23-22.55 3.13-2.16 5.92-3.92 6.2-3.92.26 0-.84 3.9-2.45 8.68-1.62 4.78-2.8 8.83-2.62 9 .18.18 2.42-3.62 4.98-8.43 2.56-4.81 4.66-8.3 4.66-7.75 0 .55-1.07 5.73-2.39 11.52-1.32 5.78-2.27 10.64-2.12 10.79.15.15 2.44-5.4 5.09-12.32 2.65-6.94 6.95-15.86 9.58-19.87 5.3-8.07 13.6-16.37 15-14.98.48.49 2.67 5.02 4.87 10.08 2.19 5.05 4.27 11.37 4.62 14.03.45 3.33.17 5.97-.88 8.48-1.18 2.83-2.34 3.87-5.15 4.65a42 42 0 0 0-8.1 3.62c-2.96 1.74-4.97 3.83-5.97 6.23-.83 1.99-1.37 3.76-1.19 3.94.18.18 2.31-1.7 4.73-4.16 3.13-3.2 5.21-4.49 7.2-4.49 1.54 0 2.8.48 2.8 1.06 0 .57-.71 2.42-1.58 4.1-.87 1.67-1.35 3.27-1.08 3.54.28.27 2.54-1.38 5.03-3.68l4.54-4.18-2.56 9.34c-1.4 5.14-3.7 12.05-5.09 15.36-2.81 6.67-4.56 12.13-3.56 11.13.36-.35 4.77-7.96 9.8-16.9 8.68-15.43 9.3-16.25 12.03-16.05 1.58.12 4.01 1.36 5.4 2.75 2.01 2 2.5 3.4 2.34 6.8-.1 2.34-2.66 12.7-5.67 23-3.01 10.32-5.95 22.18-6.53 26.36a160.7 160.7 0 0 0-1.06 17.97c0 10.15-.05 10.38-2.5 11.2l-2.5.83 5 7.5c4.24 6.38 5 8.24 5 12.28 0 2.61.15 4.75.33 4.75.17 0 13.91-4.95 30.53-11 16.62-6.04 45.2-15.99 63.52-22.1a8764.73 8764.73 0 0 0 34.8-11.66c.97-.35-.26-1.35-3.5-2.83-2.98-1.36-7.65-5-11.52-8.97-3.58-3.67-9.66-8.52-13.5-10.79a81.25 81.25 0 0 1-11.86-8.65c-2.66-2.5-5.98-6.46-7.35-8.82l-2.51-4.27 3.56-4.16c1.95-2.29 4.3-6.4 5.2-9.14 1.92-5.76 1.44-11.99-1.15-14.84-1.66-1.84-1.65-1.93.17-1.94 1.05 0 7.4.54 14.1 1.2l12.19 1.2 4.65 8.82 4.65 8.82h-3.6c-4.6 0-10.86 2.57-10.32 4.24.79 2.39 6.93 5.68 20.12 10.77 7.25 2.8 14.55 5.7 16.22 6.44 2.4 1.06 3.4 2.47 4.76 6.8.95 3.01 1.72 5.72 1.72 6.03 0 .3-1.9.74-4.23.96-4.01.38-4.5.12-9.76-5.26-3.05-3.1-7.5-6.65-9.89-7.88-2.4-1.22-4.57-2-4.83-1.73-.27.26 3.44 7.29 8.24 15.61 6.58 11.4 9.13 15.01 10.35 14.64l30.15-9.04c15.7-4.7 28.86-8.66 29.25-8.8.66-.22-14.75-18.58-29.22-34.8l-6.47-7.25 3.47.75c6.4 1.4 68.26 22.22 98.1 33.04 48.21 17.47 98.05 36.87 135.94 52.92 8.4 3.55 15.5 6.1 15.76 5.67.27-.43-.71-3.42-2.17-6.65-2.29-5.04-2.7-7.47-2.97-17.24l-.3-11.36 3.22 2.44a17.72 17.72 0 0 1 4.66 5.63c.8 1.75 1.92 3.03 2.5 2.84.6-.2 1.73-1.53 2.54-2.96 1.31-2.32 1.28-3-.25-6.21-1.6-3.34-1.6-3.8-.1-6.09 1.58-2.41 1.55-3.96-.23-11.03l-.7-2.8 5.77 3.25c5.33 3 8.56 3.49 8.56 1.27 0-.5-1.31-1.46-2.9-2.12-2.1-.87-3.09-2.1-3.52-4.42-.58-3.11-.9-3.3-9.13-5.3-4.69-1.14-8.75-1.7-9.03-1.25-.28.45-4.01.71-8.3.58-6.24-.2-8.41-.7-10.98-2.52-1.76-1.26-3.2-2.4-3.2-2.55 0-.15 3.52-.07 7.83.18 6 .35 8.58.07 11.02-1.19 1.75-.9 4.37-3.44 5.82-5.63 2.3-3.47 3.1-3.97 6.44-3.97 2.09 0 4.99.45 6.44 1 2.32.88 2.57.78 2.05-.84-.5-1.6.34-2 6.33-3.08 4.18-.74 9.84-.97 14.29-.58l7.37.65-7-4.52c-6.25-4.03-7.19-4.36-8.64-3.05-1.3 1.18-2.52 1.27-6.09.47a65.92 65.92 0 0 1-6.4-1.72c-1.7-.65-1.76-.54-.52.99.77.94 1.19 1.92.94 2.17-.26.25-3.52-.42-7.27-1.49-3.74-1.07-7.32-2.65-7.95-3.5-.66-.92-4.68-2.25-9.65-3.2-4.68-.9-10.43-2.3-12.77-3.12-2.42-.85-5.82-3.21-7.86-5.47-2.93-3.25-6.56-5.25-19.63-10.82-8.82-3.77-16.27-7.08-16.56-7.37-.29-.29.23-1.66 1.14-3.06a12.3 12.3 0 0 1 4.86-3.85l3.18-1.3-4.9-3.37c-4.63-3.19-4.79-3.44-2.96-4.78a86.97 86.97 0 0 1 5.73-3.63l3.79-2.22-6.05-2.89c-3.32-1.59-6.04-3.26-6.04-3.7 0-.45 1.57-.82 3.5-.82s3.5-.37 3.5-.83c0-.45-4.31-1.41-9.59-2.14-7.2-.98-9.71-1.72-10.07-2.93-1.11-3.84-4.62-9.88-7.58-13.04l-3.2-3.42 3.45.64c3.22.6 3.33.55 1.52-.83a8.84 8.84 0 0 0-4.6-1.48c-1.46 0-5.32.92-8.57 2.06-4.03 1.4-7.15 1.87-9.8 1.47-5.3-.81-18.84-6.52-32.16-13.54-8.3-4.38-12.5-5.98-17.02-6.51-3.3-.4-6.34-1.23-6.75-1.86-1.26-1.98-.84-3.65.94-3.65 2.78 0 .23-1.58-5.5-3.4-3.26-1.03-6.62-1.44-8.68-1.05-2.65.5-3.44.28-3.7-1.02-.3-1.45-2.74-1.72-19.37-2.14-10.47-.26-22.4-.8-26.5-1.2-7.48-.7-7.48-.7-4.88-2.4a6.07 6.07 0 0 1 5.47-.91c3.02.82 8.38-.46 8.38-2 0-.5 3.95-.98 8.77-1.08 4.81-.1 6.73-.32 4.25-.5-5.37-.4-13.02-2.32-13.02-3.26s12.28-4.73 19.46-6.02c3.27-.58 9.95-1.06 14.84-1.06 14.1 0 36.53 1.9 59.77 5.05 11.81 1.6 21.64 2.74 21.85 2.54.2-.2-2.48-1.32-5.96-2.48s-10.96-2.55-16.61-3.09c-5.66-.53-11.2-1.47-12.32-2.07-1.12-.6-1.86-1.62-1.65-2.27.22-.65 1.7-1.41 3.3-1.69 2.65-.46 2.32-.74-4-3.44-5.5-2.33-6.51-3.08-4.99-3.67 1.05-.42 3.15-.79 4.67-.83 3.95-.1 3.52-2.85-.72-4.62-2.42-1.01-7.37-1.45-16.37-1.45-11.22 0-13.1-.24-14.55-1.83-.91-1.01-1.66-2.08-1.66-2.39 0-.8 4.64-2.5 12.02-4.36 4.32-1.1 8.7-1.48 13.02-1.14 5.98.48 7.03.24 13.02-2.91l6.5-3.44-7.26.52-14.51 1.07c-5.75.43-6.87.3-5.4-.62 1.52-.94 1.62-1.33.5-2.03-.75-.48-4.07-.88-7.37-.9-3.3-.02-8.71-.67-12.02-1.45-5.2-1.22-6.93-1.22-12.98.05-3.83.8-11.33 2.12-16.66 2.92-9.18 1.38-10 1.35-15.46-.53a41.87 41.87 0 0 0-12.25-1.99c-5.24 0-6.27-.25-5.39-1.32.6-.72 3.37-2.38 6.15-3.68 2.79-1.3 4.7-2.74 4.25-3.18-.45-.45-6.43-.38-13.29.16-6.86.53-13.35.98-14.43.99-3.15.04-.41-1.96 5.62-4.1l5.35-1.9-13.52.6c-12.16.52-24.07 2.1-29.54 3.92-1.97.65-1.97.64-.07-.91 1.06-.87 1.66-1.85 1.32-2.18-.97-.97-11.22 2.37-14.02 4.57a10.54 10.54 0 0 1-5.52 2.02c-1.63 0-5.4.48-8.36 1.07-6.12 1.22-37.02 1.88-36.34.79.24-.4-2.17.3-5.35 1.55-5.47 2.14-14.27 4.12-14.27 3.2 0-.22 2.26-2.04 5.03-4.03 4.71-3.38 6.3-3.84 24.79-7.13 21.9-3.91 49.95-7.62 72.82-9.64 20.2-1.78 100.99-1.8 120.16-.03 45.93 4.25 86.88 11.16 126.67 21.37 31.44 8.08 69.29 20.87 101.64 34.37a845.07 845.07 0 0 1 36.38 16.6c33.06 16.11 56.63 29.57 86.91 49.63a863.9 863.9 0 0 1 33.35 23.47 751.88 751.88 0 0 1 53.14 43.58c18.08 16.22 53.47 52.55 68.7 70.55 39.65 46.85 70.84 93.69 97.83 146.93 17.33 34.16 29.46 63.38 42.32 101.89a732.23 732.23 0 0 1 33.42 153.23c2.14 19.75 4.14 48.2 3.92 56.05-.07 2.76-.3 3.88-.53 2.5a3640.7 3640.7 0 0 1-3.43-24.53c-2.98-21.65-7.08-43.24-10.84-57.07l-1.9-7.01-.09 9.26c-.05 5.1-.43 9.26-.84 9.26-.91 0-6.68-8.45-8.37-12.27-1.12-2.54-2.48-3.23-5.6-2.83-.67.08-2.97-2.61-5.11-5.99l-3.9-6.14-2.62 8.36c-3.1 9.96-10.57 25.6-14.92 31.3-3.54 4.64-12.95 14.6-13.78 14.6-.3 0-2.51-2.5-4.91-5.58-2.4-3.07-4.7-5.21-5.11-4.76-.41.46-1.7 4.44-2.86 8.85-1.61 6.11-2.84 8.66-5.18 10.78-2.44 2.21-3.44 2.56-4.96 1.75-2.8-1.5-10.12-1.23-13.4.48-2.78 1.45-3 1.37-8.01-2.88-2.84-2.4-6.6-5.1-8.37-6a16.63 16.63 0 0 0-6.27-1.63c-2.39 0-3.5.72-5.05 3.25-2.1 3.43-2.58 8.3-1.06 10.69.58.92.36 2.24-.64 3.75-1.43 2.19-1.4 2.34.54 2.34 1.25 0 3.92 2.16 6.84 5.54 4.02 4.66 5.18 5.45 7.32 4.98 2.2-.49 3.75.76 11.95 9.67l9.42 10.24-.66-4.2a270.4 270.4 0 0 1-1.16-8.46c-.46-3.93-.17-3.57 3.92 4.81 2.43 4.99 5.06 9.6 5.85 10.26 1.19.98 1.65.45 2.7-3.06.7-2.34 2.97-6.1 5.05-8.36a18.64 18.64 0 0 0 4.9-9.31c.61-2.86 1.14-11.83 1.16-19.92l.05-14.72 3.97 9.5c2.26 5.4 5.15 10.56 6.68 11.9l2.7 2.4 4.05-4.68 4.05-4.68 3.81 4.56 3.81 4.56-.25 19.26c-.18 13.08.13 20.4.95 22.84 1.07 3.13.94 4.2-.97 8.51a24.16 24.16 0 0 0-2.07 9.94c.08 3.68-.56 6.14-2.4 9.3-2.04 3.46-2.46 5.37-2.23 10.01.3 6.07-.3 7.52-8.26 20.15-2.99 4.74-3.42 6.26-3.44 12.02-.02 6.16-.44 7.37-6.28 18.24-3.44 6.4-7.3 14.74-8.6 18.53a114.4 114.4 0 0 1-5.05 12.23c-1.49 2.94-5.35 8.18-8.56 11.64-4.32 4.65-6.33 7.79-7.65 11.98-1.79 5.67-7.48 13.58-9.77 13.58-.66 0-3.53-4.84-6.38-10.76-3.32-6.9-5.33-12.51-5.61-15.64-.24-2.67-1.31-6.05-2.38-7.5-1.07-1.46-4.69-4-8.04-5.65-4.34-2.14-6.54-3.92-7.64-6.2a14.36 14.36 0 0 0-4.19-4.94c-1.45-.95-4.55-1.84-6.88-1.97-2.33-.13-5.83-.9-7.77-1.71-2.98-1.25-3.7-2.2-4.72-6.23a49.39 49.39 0 0 0-3.15-8.6 35.55 35.55 0 0 0-5.5-7.37c-2.59-2.6-4.39-3.53-6.75-3.52-1.77.01-3.82.4-4.56.87-.94.6-4.06-1.84-10.58-8.28-10.83-10.7-20.4-16.85-25.57-16.43l-3.44.28-1.72-6.83c-.95-3.75-2.04-7.13-2.41-7.5-.38-.37-.36 4.44.04 10.7l.73 11.37-3.39-.7c-1.86-.4-7.17-2.7-11.8-5.14-4.62-2.43-8.56-4.27-8.75-4.09-.18.2.98 2.13 2.59 4.32 1.89 2.57 6 5.74 11.58 8.94 4.76 2.73 9.85 6.32 11.31 7.97 6.32 7.16 13.35 13.26 19.03 16.52 5.52 3.17 6.16 3.89 6.75 7.51.35 2.2 1.28 5.02 2.07 6.26 1.5 2.37 4.3 2.95 5.99 1.25.66-.66 2.43-.43 5.3.7 4.1 1.6 4.57 2.25 11.17 15.43 4.21 8.4 7.6 13.95 8.68 14.25.98.27 3.59.79 5.79 1.15 2.2.37 5.02 1.32 6.26 2.12 1.24.8 4.29 5.5 6.77 10.44 2.75 5.47 5.12 8.98 6.06 8.98.84 0 2.92-.71 4.61-1.59a10 10 0 0 1 6.21-1c5.17.97 15.4 6.28 17.09 8.86a7.23 7.23 0 0 1 .98 5.45c-.56 2.79-.24 3.23 4.09 5.65 3.43 1.92 5.17 2.38 6.45 1.7.96-.52 4.64-5.06 8.17-10.1 3.52-5.03 9.66-13.73 13.63-19.32a301.6 301.6 0 0 0 12.02-18.4c2.63-4.51 5.13-8.23 5.54-8.25 2.27-.13-1 24.62-7.74 58.53-4.3 21.63-7.5 32.23-14.81 49.07-1.92 4.4-12.91 26.94-24.44 50.07-11.53 23.13-24.64 50.39-29.14 60.57-7.63 17.28-8.04 18.56-6.2 19.24 1.09.4 1.97.91 1.97 1.13 0 .23-.89 3.2-1.98 6.6a75.15 75.15 0 0 0-2.63 12.6c-.63 6.16-.58 6.36 1.48 5.82 1.17-.3 2.13-.1 2.13.43 0 .55-1.38 5.67-3.08 11.39a164.25 164.25 0 0 1-7.05 18.89c-4.75 10.15-16.18 27.5-25.4 38.56a546.93 546.93 0 0 1-17.82 19.81c-10.77 11.41-11.2 12.03-13 19.03a94.52 94.52 0 0 1-5.23 14.24c-2.53 5.28-5.28 8.86-11.2 14.53a395.26 395.26 0 0 1-11.34 10.54 40.82 40.82 0 0 0-6.23 7.18c-1.5 2.29-5.61 7.46-9.14 11.49-6.72 7.68-33.18 32.6-50.22 47.31a248.16 248.16 0 0 1-18.62 14.47c-4.73 3.2-14.95 9.05-22.71 12.99-7.76 3.93-14.37 7.15-14.68 7.15-.31 0-.57-.22-.57-.5zM965.6 1460.5c6.18-8.2 16.83-23.06 23.66-33a964.8 964.8 0 0 0 67.14-113.7c6.8-13.5 15.86-32.42 20.13-42.06a961.9 961.9 0 0 0 28.49-72.6c7.18-20.97 17.64-56.86 21.6-74.1 1.51-6.6 3.04-12.35 3.4-12.76.87-1 20.79.85 36.1 3.37a375.1 375.1 0 0 1 28.05 6.12c8.53 2.23 17.32 4.26 19.53 4.5 3.04.33 4.68-.08 6.73-1.7 2.95-2.31 4.42-7.44 3.22-11.2-.4-1.3-6.21-7.98-12.9-14.87-6.7-6.88-15.41-16.73-19.38-21.87a269.57 269.57 0 0 1-12.9-18.53 267 267 0 0 1-11.41-21.18c-3.15-6.6-7.33-17-9.28-23.07a242.13 242.13 0 0 1-5.58-21.05 255.33 255.33 0 0 1-3.2-22.49c-.63-6.87-.9-18.35-.58-25.51.63-14.18 2.7-29.95 5.8-44.06 3.13-14.26 8.6-31.87 14.6-47.07 12.29-31.08 27.28-59 51.39-95.72 4.95-7.54 6-9.88 6-13.38 0-5.25-3.17-10.3-8.15-13-3.58-1.92-3.6-1.92-18.5.76-30.04 5.42-59.39 8.7-77.91 8.7h-9.32l-5.77-16.78a1010.15 1010.15 0 0 0-24.01-62.33c-7.33-17.25-24.45-52.5-34.3-70.6a1014.32 1014.32 0 0 0-52.63-85.52c-12.1-17.54-39-53.26-39.87-52.95-.42.16-4.54 3.52-9.14 7.48-4.6 3.96-14.45 13.43-21.88 21.03-22.08 22.59-42.4 48.01-61.48 76.92-13.33 20.18-25.37 41.04-37.57 65.08-15.33 30.21-26.67 56.73-38.57 90.2-7.96 22.38-14.78 45.22-21.48 71.95l-5.75 22.95-7.41 4.28c-9.78 5.64-29.12 14.4-43.72 19.79a408.3 408.3 0 0 1-25.14 8.12 517.25 517.25 0 0 1-31.74 7.45c-12.94 2.59-19.01 4.25-20.55 5.63a17.56 17.56 0 0 0-3.6 5.29c-1.1 2.57-1.17 4.09-.34 6.6.6 1.8 2.09 4.23 3.32 5.38 1.23 1.16 6.96 3.74 12.74 5.75a351.65 351.65 0 0 1 47.6 20.37c15.92 8.18 33.22 19.2 45.22 28.77l7.23 5.77v29.6c0 29.95.9 47.6 3.67 72.16a785.79 785.79 0 0 0 22.53 117.65 891.82 891.82 0 0 0 37.57 108.45c9.35 22.01 25.64 55.5 36.5 75.03 21.02 37.79 46.14 74.22 70.92 102.85 11.11 12.84 37.2 38.76 38.59 38.34.59-.18 6.14-7.03 12.33-15.24zm2.76-255.66c-7.93-.91-36.03-7.02-67.44-14.65-19.08-4.63-40.1-9.56-46.71-10.94-14.52-3.05-38.45-6.63-44.31-6.64-2.34 0-4.26-.25-4.26-.56 0-.3.66-1.82 1.47-3.38 2.68-5.18 10.23-28.45 12.87-39.62 4.67-19.8 6.1-32.46 6.09-53.58-.01-13.78-.53-22.76-1.78-30.54-2.35-14.62-6-28.92-10.34-40.55a247.5 247.5 0 0 0-8.83-20.03 216.2 216.2 0 0 0-23.55-36.55 250.88 250.88 0 0 0-15.46-17.08c-5-5-13.67-12.73-19.28-17.2a339.8 339.8 0 0 0-20.32-14.8A380.16 380.16 0 0 0 704 885.29a364.4 364.4 0 0 0-27.22-13c-8.16-3.42-15.96-6.7-17.33-7.29-2.22-.93-1.3-1.32 8-3.42 15-3.37 32.51-8.48 47.57-13.87 7.16-2.57 21.58-8.87 32.04-14 21.03-10.32 41.18-23.17 57.74-36.84 11.72-9.67 32.48-30.6 41.49-41.83 19.01-23.7 34.8-50.3 47.35-79.75a464.96 464.96 0 0 0 9.6-24.53l4.07-11.74c.28-.76 3.47 3.55 7.24 9.78a387.32 387.32 0 0 0 12.98 19.9 282.3 282.3 0 0 0 15.02 18.7 239.72 239.72 0 0 0 17.37 17.52 277.15 277.15 0 0 0 18.03 14.33c5.19 3.72 15.99 10.06 24 14.1 8 4.03 20.2 9.18 27.1 11.43 6.9 2.26 17.92 5.23 24.5 6.62a352.36 352.36 0 0 0 26.46 4.2c11.58 1.33 20.1 1.56 42.06 1.14 15.92-.3 33.03-1.2 40.55-2.14 7.16-.9 19.62-2.74 27.68-4.1a409.24 409.24 0 0 1 15.7-2.47c.58 0-2.9 6.2-7.71 13.77a784.12 784.12 0 0 0-15.65 25.78c-9.62 16.82-22.3 43.44-28.86 60.59a450.53 450.53 0 0 0-9.6 28.37 327.26 327.26 0 0 0-10.15 49.23c-1.77 14.66-1.53 42.77.49 57.03.93 6.58 3.2 17.87 5.06 25.1a237.74 237.74 0 0 0 7.07 22.57c9.11 23.26 23.56 47.1 40.7 67.17 2.64 3.1 4.81 5.85 4.81 6.1s-3.71-.37-8.26-1.37c-4.54-1-14.34-2.77-21.78-3.93-9.42-1.46-20.54-2.27-36.68-2.65-14.66-.35-27.35-.12-34.55.62-6.26.65-17.01 2.3-23.9 3.69a245.79 245.79 0 0 0-24.33 6.45 188.04 188.04 0 0 0-21.83 9.08c-10.81 5.55-19.43 11.5-27.25 18.81a84.1 84.1 0 0 0-9.2 10.63c-8.02 11.3-11.82 20.85-13.58 34.12a57.72 57.72 0 0 0 .02 17.06c.64 4.74 1.02 8.7.85 8.78-.17.1-1.66 0-3.3-.19zm189.24 195.02c-1-3.33-2.15-6.25-2.55-6.5-.39-.24-1.27.23-1.95 1.05-.68.82-2.6 1.5-4.29 1.5-1.67 0-5.5-1.39-8.49-3.07-2.99-1.7-5.55-2.93-5.7-2.76-.6.72-2.54 4.73-2.54 5.26 0 .31 1.56.56 3.46.56s5.7.49 8.44 1.07c5.6 1.2 9.6 4.54 11.9 9.95 1.46 3.4 1.53 3.44 2.53 1.24.76-1.68.55-3.8-.81-8.3zm345.72-11.47c.13-3.03.95-7.2 1.83-9.26.87-2.06 1.85-7.02 2.16-11.01.53-6.8.44-7.26-1.44-7.26-1.75 0-2.08.83-2.53 6.44-.35 4.36-1.37 7.98-3.14 11.15a18.55 18.55 0 0 0-2.62 10.07c0 5.2.09 5.38 2.75 5.38 2.64 0 2.76-.22 3-5.5zm-18.92-18.08c.18-.16-.24-2.84-.93-5.96-1-4.43-1.8-5.88-3.65-6.58-2.23-.85-2.33-1.26-1.75-6.67.56-5.2.35-6.19-2.2-10.05l-2.81-4.29-.86 3.29c-.47 1.8-.58 5.76-.24 8.8.34 3.02.59 7.26.55 9.41-.04 2.2.5 4.28 1.23 4.75.72.45 2.37.83 3.66.84 2.14.01 2.33.38 1.98 3.98-.36 3.8-.27 3.94 2.15 3.36a14.7 14.7 0 0 0 2.87-.88zm22.72-63.98c1.38-1.8 5.39-9 8.91-15.97 5.56-11 6.12-12.6 4.24-12.03-5.47 1.7-12.55 6.11-17.75 11.07l-5.67 5.41-.7 8.74c-.37 4.81-.91 10.54-1.2 12.75l-.52 4 5.1-5.34c2.8-2.94 6.2-6.82 7.59-8.63zM1404 1009.1c.1-.12 2.08-3.94 4.43-8.49 2.34-4.55 5.54-9.34 7.1-10.65 1.56-1.32 6.35-3.57 10.65-5.01 4.3-1.45 10.18-4.25 13.07-6.24l5.25-3.62-.01-18.15c-.01-11.71-.52-20.5-1.43-24.8-1.26-5.94-2.54-8.87-8.82-20.23a18.22 18.22 0 0 1-1.75-7.42c0-3.03-.42-4.25-1.44-4.25-.79 0-2 1.57-2.7 3.5-1.02 2.8-1.94 3.62-4.65 4.13-1.86.34-3.54 1.14-3.73 1.76l-2.92 9.63a266.73 266.73 0 0 0-4 14.83c-1.06 4.63-1.13 6.21-.26 5.92.64-.22 1.19-1.38 1.2-2.58.02-1.47 1.15-2.75 3.49-3.92 1.9-.95 4.46-3.24 5.69-5.08l2.24-3.35-.6 5.35c-.34 2.95-1.19 6.48-1.89 7.86-.7 1.37-2.63 3.8-4.3 5.38-2.22 2.11-3.72 2.75-5.6 2.4-2.3-.44-2.67-.07-3.61 3.62-3.47 13.58-11.49 41.93-14.81 52.37l-3.9 12.2 6.57-2.46a93.09 93.09 0 0 0 6.73-2.7zm32.16-186.54l2.55-5.58-1.82-4.69-1.82-4.68-.66 4.5c-1.53 10.48-2.03 16.03-1.44 16.03.35 0 1.78-2.51 3.19-5.58zm85.82-15.03c1.35-.92 2.6-1 4.5-.28 1.44.55 4 .74 5.7.42 1.69-.32 4.45-2.04 6.14-3.82 1.68-1.79 5.1-6.1 7.6-9.57l4.53-6.33-4.42-4.07c-2.43-2.24-6.36-7.28-8.73-11.2-4.14-6.83-4.5-7.15-8.89-7.77-2.51-.36-5.63-1.36-6.94-2.21-1.3-.86-4.16-4.48-6.35-8.06-2.94-4.82-4.98-6.96-7.8-8.24-2.11-.94-5.12-3.19-6.7-4.98-1.57-1.79-3.16-4.64-3.53-6.33-.37-1.7-1.05-3.08-1.52-3.08-.46 0-2.12.74-3.7 1.64-2.72 1.56-3.31 1.5-13.55-1.65l-10.7-3.29 2.44-4.16 2.44-4.16-3.49-3.28c-1.91-1.8-3.48-4.02-3.48-4.92 0-.9 2.05-3.72 4.54-6.25l4.55-4.61-4.8-5.12a255.51 255.51 0 0 1-7.97-8.94l-3.18-3.83-2.77 2.07c-5.36 4-8.3 8.8-10.42 16.97-1.14 4.4-2.5 13.01-3 19.14l-.94 11.13 3.81 8.8c3.78 8.73 3.85 8.81 8.4 9.97 2.95.75 6.35 2.75 9.56 5.64a41.77 41.77 0 0 0 11.87 7.15c7.49 2.9 23.77 7.75 26.04 7.75 1.2 0 1.17.46-.11 2.96a18.3 18.3 0 0 0-1.53 7.04c0 2.25.7 5.76 1.54 7.81.85 2.05 4.3 7.9 7.66 13l6.1 9.29 2.62-1.68c1.43-.92 3.45-2.25 4.48-2.95zM421 730.57a42.83 42.83 0 0 0 1.11-8.77v-4.31l-2.57 4.5c-1.41 2.48-3.7 5.71-5.1 7.18l-2.54 2.67 2.86 1.55c1.57.85 3.37 1.56 4 1.58.61.03 1.63-1.96 2.24-4.4zm1091.85-54c2.4-1.77 2.75-2.68 2.75-7.38 0-2.96-.73-6.81-1.62-8.58-1.72-3.41-14.63-20.83-15.1-20.37-.14.15.2 2.97.78 6.26.85 4.8.76 6.83-.46 10.37l-1.51 4.4 5.16 9.26c2.88 5.17 5.62 9 6.2 8.65a72.9 72.9 0 0 0 3.8-2.62zm30.79-95.18c0-.75-13.24-23.08-14.46-24.4-.97-1.03-1.54-.9-2.94.65-1.68 1.85-1.53 2.37 3.83 13.05l5.57 11.12h4c2.2 0 4-.19 4-.42zm-807.39-74.76c2.5-.95 2.61-1.17 1.02-2.06a8.56 8.56 0 0 0-4.4-.68 4.07 4.07 0 0 0-3.48 2.68c-.8 2.15-.65 2.3 1.6 1.74 1.36-.34 3.73-1.1 5.26-1.68zm782.16-4.01l3.1-1.09-2.2-3.4c-1.95-3.01-2.72-3.42-6.53-3.43-2.38 0-5.3-.52-6.5-1.13a30.7 30.7 0 0 1-5.1-3.76c-3-2.71-2.75-1.73.84 3.23 2.1 2.9 11.24 10.66 12.56 10.66.4 0 2.12-.49 3.83-1.08zM312.98 1555.12c0-.55.48-1 1.06-1 .58 0 .78.45.44 1s-.82 1-1.06 1c-.24 0-.44-.45-.44-1zm164.07-92.8a3.74 3.74 0 0 1-2.25-2.13c-.33-.94-.88-2.3-1.22-3.04-.43-.94.06-1.23 1.69-1 1.49.22 2.76 1.48 3.62 3.6.72 1.78.98 3.2.57 3.13-.42-.06-1.5-.31-2.4-.56zm-70.2-34.5c-1.52-1.12-2.5-2.48-2.16-3.01.7-1.13 3.06.6 4.5 3.3.55 1.02.86 1.83.7 1.8-.15 0-1.52-.95-3.04-2.08zm1107.2.38c1.5-4.01 11.77-21.3 16.48-27.77 2.8-3.83 6.17-9.23 7.5-12l7-14.55c2.85-5.95 8.52-14.77 15.13-23.54 9.55-12.67 14.66-20.64 26-40.55l3.7-6.51-.61 4.35c-.71 5.1-4.12 15-8.31 24.19a248.25 248.25 0 0 1-8.77 16.52c-10.03 17.33-31.23 50.75-37.26 58.74-9.13 12.08-18.63 22.87-20.14 22.87-.9 0-1.16-.61-.73-1.75zm-1115.76-47.65c-3.05-1.12-5.15-3.1-5.19-4.92-.03-1.32 3.35-.77 7.83 1.26 2.5 1.14 4.17 2.5 3.93 3.23a2.42 2.42 0 0 1-1.84 1.45c-.78.1-2.91-.36-4.73-1.02zm-19.72-11.25c-2.76-1.32-5.78-2.41-6.71-2.42-.94-.01-2.13.74-2.65 1.67-.83 1.48-1.36 1.25-4.3-1.86a33.9 33.9 0 0 0-7.87-5.8c-5.18-2.6-7.75-4.69-9.26-7.5-1.04-1.95-1.02-1.95 1.85-.1l5.19 3.36c1.25.81 2.52 1.23 2.82.93.3-.3-1.94-3.62-4.97-7.38s-5.36-6.98-5.18-7.16c.18-.19 3.42 1.23 7.2 3.15 9.04 4.59 33.9 25.98 29.76 25.6-.48-.04-3.13-1.16-5.88-2.49zm-47.59-23.99c-2.35-3.04-4.06-5.73-3.82-5.98.69-.68 7.5 5.22 9.88 8.55 2.05 2.88 2.06 2.96.16 2.96-1.18 0-3.63-2.18-6.22-5.53zm3.45-9.75c-4.06-2.4-8.95-5.64-10.19-6.73a4.76 4.76 0 0 1-1.25-3.16c0-1.13-1.81-4.11-4.02-6.63a72.23 72.23 0 0 1-7.03-9.8c-1.64-2.89-4.07-5.95-5.39-6.81-1.31-.87-5.21-5.53-8.66-10.37a210.63 210.63 0 0 0-8.28-11.06c-1.1-1.24-2.82-2.25-3.8-2.25-2 0-3.87-2.83-3.87-5.85 0-4.26 4.35-.61 13.06 10.91 4.9 6.5 9.74 12.4 10.76 13.14 1.01.73 5.33 5.88 9.6 11.46 4.27 5.57 8.86 10.63 10.2 11.24 1.34.61 2.44 1.6 2.44 2.18 0 .58 2.48 3.48 5.5 6.44 5.25 5.13 6.97 8.57 4.26 8.54a8.97 8.97 0 0 1-3.33-1.25zm-57.75-93.61c-7-14.48-12.24-27.69-20.29-51.07-.23-.69-1.34-1.25-2.46-1.25-1.48 0-2.03-.66-2.03-2.42 0-1.33-.89-4.48-1.96-6.99-2.63-6.14-8.77-15.63-10.12-15.63-.59 0-.86.8-.59 1.76 1.84 6.58 1.86 6.74.77 5.71-2.48-2.34-13.1-42.59-19.14-72.56a846.63 846.63 0 0 1-11.5-78.1 1054.1 1054.1 0 0 1-2.67-43.03c-.82-19.54-.81-33.5.02-53.13.62-14.64 1.82-34.03 2.68-43.08a872.33 872.33 0 0 1 9.05-65.85c1.37-7.54 4.1-20.69 6.05-29.23 15.44-67.52 40.11-132.87 72.36-191.62a773.02 773.02 0 0 1 36.01-59.21c10.1-15.01 25.71-36.34 35.55-48.57a962.45 962.45 0 0 1 43.3-49.54c13.3-14.13 37.45-37.1 54.47-51.8 15.2-13.1 47.4-38.25 43.31-33.8-.69.75-1.25 1.69-1.25 2.09 0 .4 6.07-2.17 13.48-5.7 7.42-3.55 13.84-6.43 14.27-6.4.43.02-.77 1.37-2.68 3l-3.46 2.96h11.79l-2.05 2.26c-1.13 1.23-1.87 2.74-1.65 3.34.22.6-1.52 1.95-3.87 3s-7.43 4.17-11.3 6.93c-3.86 2.76-13.55 9.5-21.54 14.97-9.1 6.24-17.51 13-22.53 18.09-4.4 4.47-14.32 13.56-22.03 20.2-7.7 6.65-16.27 14.44-19.02 17.34l-5.01 5.25 3.36-.62c2.93-.55 3.26-.4 2.61 1.12-.4.96-1.47 3.68-2.36 6.04-1.38 3.67-1.4 4.42-.19 5.17.82.5 2.43.5 3.81-.03 1.62-.62 2.19-.58 1.75.13-.35.57-5.45 5.15-11.32 10.18-5.87 5.02-10.83 9.51-11.01 9.97-.19.46.49.55 1.5.2 1-.34.19.78-1.83 2.5-2.46 2.1-3.5 3.73-3.18 4.96.3 1.13-.9 3.55-3.1 6.27-5.92 7.32-13.98 19.87-19.2 29.87-5.09 9.8-13.3 20.13-13.37 16.86-.02-.96-.46-1.75-.97-1.75-.52 0-1.87 1.31-3.01 2.91-3.07 4.3-7.06 13.28-7.07 15.89 0 1.71.7 2.42 2.87 2.85l2.88.58-5.49 7.97c-3.02 4.38-5.31 8.15-5.1 8.36.22.22 2.41-1.32 4.87-3.41 2.57-2.2 6.07-4.1 8.24-4.5 2.08-.4 4.2-.44 4.72-.12.52.32-.6 2.63-2.52 5.13-2.96 3.88-4.12 7.34-3.58 10.67.07.42-.94 2.9-2.25 5.5-1.31 2.61-2.7 5.76-3.08 7-.6 1.93-.33 2.25 1.87 2.25 2.27 0 2.57.41 2.57 3.5 0 1.93.45 3.51.99 3.51s2.19-1.92 3.65-4.26c1.47-2.34 3.17-4.58 3.77-4.99a5.4 5.4 0 0 1 2.5-.75c1.09-.01 1.26 1.2.8 5.66-.54 5.25-1.02 6.12-6.4 11.63-3.66 3.75-4.88 5.5-3.3 4.7 1.37-.7 3.7-2.1 5.16-3.12a11.09 11.09 0 0 1 5.3-1.86c1.6 0 3.68-1.1 5.24-2.75a30.5 30.5 0 0 0 4.52-7.04c1.2-2.68 3.75-5.64 6.8-7.93 4.07-3.03 5-4.34 5.55-7.73 1.07-6.73 5.02-14.22 9.93-18.8 2.54-2.37 7.42-7.2 10.84-10.7 6.17-6.33 20.42-16.81 21.45-15.78.93.92-6.26 12.78-13.67 22.55-3.92 5.16-8.57 12.02-10.34 15.22-2.43 4.4-4.17 6.26-7.09 7.58-5.25 2.38-7 5.28-6.17 10.2.6 3.59.4 4.12-2.43 6.13-1.7 1.2-3.75 3.5-4.57 5.07-.82 1.58-1.49 3.13-1.49 3.43 0 .3.54.55 1.2.55.66 0 2.51-1.24 4.12-2.75l2.92-2.76-.74 3.5a33.89 33.89 0 0 1-2.52 7.02c-.99 1.92-4.83 6.85-8.53 10.95-6.08 6.71-9.82 13.02-11.95 20.09-.74 2.46-.7 2.45 2.62-.58 1.85-1.7 5.34-4.59 7.74-6.43a57.98 57.98 0 0 0 8.38-8.44c2.2-2.8 4.96-5.32 6.13-5.62 1.17-.3 3.12-2.1 4.34-4 5.31-8.33 7.39-10.98 9.86-12.6 2.25-1.47 2.78-1.52 3.6-.3.54.78.8 4.8.6 8.93-.3 5.87-1.08 8.97-3.58 14.22-1.77 3.68-4.39 7.63-5.82 8.76-1.44 1.13-2.92 2.05-3.29 2.05-.37 0-1.14-1.24-1.72-2.75-1.04-2.72-1.1-2.68-4.05 3.75a100.59 100.59 0 0 0-4.74 13.02c-.97 3.58-2.73 7.57-3.92 8.87-3.26 3.58-9.85 7.86-15.53 10.1l-5.1 2.01-1.41-2.68c-1.05-2-1.14-3.28-.36-4.98.83-1.83.66-2.72-.83-4.37-1.78-1.96-1.95-1.97-3.17-.31-.7.97-1.28 3.25-1.28 5.07 0 1.82-.41 3.31-.92 3.31-.5 0-3.7 2.33-7.1 5.17-4.96 4.15-6.37 4.9-7.14 3.76-.9-1.35-.6-6.75.71-12.68l.61-2.75-2.09 3c-3.1 4.46-3.67 9.09-1.65 13.33l1.72 3.6-8.84 8.2c-8.45 7.82-8.86 8.06-9.18 5.54-.18-1.45-.72-3.04-1.2-3.54-.52-.53-2.55.6-4.94 2.75-2.22 2.02-4.63 3.66-5.34 3.66s-1.72 1.43-2.25 3.17c-.53 1.75-1.75 3.66-2.7 4.25-1.29.8-2.3.74-3.78-.18-1.79-1.12-2.36-.87-5 2.13-1.64 1.87-4.26 4.01-5.82 4.77-1.57.76-7.7 6.57-13.61 12.9-9.43 10.09-11.44 12.9-16.27 22.7-5.33 10.81-5.45 11.26-3.87 13.67 1.54 2.35 1.5 2.83-.83 8.35a105.1 105.1 0 0 0-4.12 12.36c-1.25 4.93-2.42 7.17-4.84 9.23l-3.2 2.73 2.53.03c1.39.01 3.45.67 4.58 1.46 1.57 1.1 2.37 3.46 3.37 9.86.72 4.64 1.09 12.17.83 16.75-.38 6.53-.09 9.37 1.36 13.18a33.5 33.5 0 0 1 1.85 9.92c0 4.37.4 5.4 2.95 7.54 1.62 1.37 3.24 3.4 3.59 4.5a4.82 4.82 0 0 0 2.55 2.74c1.81.67 1.77.98-.93 6.7-1.55 3.29-3.12 7.83-3.48 10.08-.36 2.26-1.85 6.77-3.32 10.02-2.97 6.57-3.29 10.86-2 26.94.79 9.91 2.12 15.52 3.7 15.52.44 0 1.08-.88 1.42-1.94.34-1.07 2.2-3.33 4.12-5.02 2.96-2.6 3.6-3.9 4.03-8.33.29-2.88 1.61-10.65 2.95-17.26a308.1 308.1 0 0 0 2.97-16.64c.54-4.52.66-4.65 4.5-5.16 2.17-.3 5.99-1.52 8.49-2.73 3.06-1.48 5.83-4 8.54-7.8a48.92 48.92 0 0 0 5.88-11.66c2.56-8.3 4.5-23.46 3.84-29.89-.32-3.04-.08-6.15.54-7.27.6-1.08 3.68-4.52 6.85-7.65 5.04-4.97 6.08-6.7 8.33-13.82 1.41-4.47 2.57-9.06 2.57-10.19 0-1.15 1.97-3.89 4.46-6.2 3.9-3.64 4.55-4.84 5.17-9.64a42.44 42.44 0 0 1 2.59-9.76c1.28-2.9 2.68-4.46 4.39-4.9 1.38-.34 2.62-.45 2.75-.25l3.02 4.7c1.56 2.44 4.17 4.92 5.96 5.67 1.75.73 3.57 1.1 4.05.8 1.92-1.19 2.63 2.8 2.64 14.9l.01 12.69 4.12 3.41 4.12 3.42-4.03 8.43c-2.22 4.64-4.34 9.96-4.73 11.82a43.73 43.73 0 0 1-2.57 7.51c-1.03 2.27-1.88 5.3-1.89 6.76-.01 1.44.65 4.24 1.48 6.22.83 1.98 1.5 4.94 1.5 6.58 0 1.78.7 3.38 1.72 3.95 1.23.69 2.82.4 5.56-1 2.1-1.07 4.1-2.64 4.42-3.49.33-.84 1.67-1.94 2.99-2.44 1.32-.5 3.54-2.84 4.95-5.18 11.05-18.49 12.55-20.68 13.81-20.2 1.04.4 1.15 1.41.48 4.22-.48 2.03-.9 7.75-.94 12.7-.03 4.95-.48 12.39-1 16.52-.73 5.68-.57 10.58.64 20.12l1.6 12.6-3.1 3.1c-2.12 2.12-3.09 4.06-3.09 6.2 0 1.7 1.55 6.18 3.45 9.95 2.09 4.14 3.23 7.66 2.9 8.91-.43 1.65.28 2.5 3.43 4.1 2.91 1.49 4.13 2.82 4.57 5.02.5 2.51 1.42 3.3 5.59 4.77l4.98 1.78-6.2 3.88a117.62 117.62 0 0 0-6.9 4.54c-.4.36 1.74.5 4.75.31 4.36-.27 5.58 0 6.09 1.32.35.91.15 2.73-.45 4.04-1.04 2.29-.92 2.4 3.11 2.7 3.5.25 4.44.78 5.57 3.16 1.2 2.5 1.12 3.6-.67 9-1.25 3.79-1.67 6.53-1.1 7.11 1.56 1.61 1.03 5.16-1.2 8a28.45 28.45 0 0 1-6.01 5.15c-3.36 2.11-4.61 2.36-9.37 1.8-3.9-.46-5.96-.26-7.09.67-.88.73-2.44 2.99-3.48 5.03-1.14 2.23-3.66 4.74-6.35 6.31l-4.47 2.62-9.34-2.45c-10.58-2.77-20.92-6.22-28.57-9.52l-5.21-2.24-2.97 2.11c-1.63 1.16-3.95 4.14-5.14 6.61-1.77 3.66-2.68 4.5-4.85 4.5-1.46 0-3.84.8-5.27 1.76-1.44.96-6.74 6.48-11.8 12.26-6.51 7.46-8.72 10.61-7.6 10.85.94.2 4.05-2.35 7.58-6.2 3.9-4.25 8-7.53 11.71-9.35 4.65-2.28 7.06-2.8 12.9-2.8 6.22 0 7.52.32 9.76 2.42 3.66 3.43 3.48 8-.51 12.55l-3.1 3.54-2.53-1.99c-2.96-2.33-5.15-1.62-2.85.92.86.95 1.57 2.3 1.57 2.99 0 .85.9 1.05 2.84.62 1.9-.41 3.25-.14 4.05.84.8.95.86 1.67.2 2.08-1.96 1.21-2.94 7.52-2.1 13.49.78 5.52 1.25 6.31 7.14 12.05 5.3 5.18 6.79 6.1 9.35 5.85 2.58-.25 3.47.32 5.8 3.71 1.51 2.2 2.75 4.3 2.75 4.67 0 .37-2.36 1.18-5.25 1.8-2.9.61-8.26 2-11.92 3.1-5.15 1.52-7.71 3-11.3 6.54-2.54 2.51-5.17 4.39-5.85 4.17-1.66-.55-3.6-6.41-3.67-11.08-.04-2.63.75-4.88 2.51-7.2 2.52-3.3 2.54-3.38.57-4.43a8.97 8.97 0 0 0-3-1.07c-1.7 0-4.28 3.2-3.73 4.63.39 1.01-.45 1.38-3.2 1.38-2.04 0-7.24.85-11.55 1.88-5.55 1.33-8.68 2.7-10.76 4.69-2.35 2.25-2.94 3.66-2.94 7.1 0 2.5 1.1 6.68 2.63 10.02 1.88 4.12 2.34 6.18 1.64 7.3-.6.96-3.18 1.79-6.8 2.19-3.63.4-6.29 1.25-7.03 2.25-.87 1.2-2.55 1.57-6.38 1.4-3.67-.16-5.47.2-6.13 1.25-.51.8-.94 3.23-.94 5.38-.01 2.15-1.7 8.9-3.77 15.02-3.6 10.64-3.76 11.7-3.86 25.13-.06 7.7-.17 14.82-.25 15.8-.1 1.1-1.86 2.52-4.52 3.67-4.32 1.84-7.76 5.53-9.05 9.7-.42 1.35-1.8 2.36-3.78 2.75l-3.11.63.53 7.79c.54 7.83 1.13 9.77 16.14 52.85 4.8 13.8 6.57 21.46 4.93 21.46-.53 0-4.83-8-9.55-17.77zm-9.95-188.41c1.36-.73 1.84-1.73 1.47-3.12a5.63 5.63 0 0 0-2.45-3.07 5.67 5.67 0 0 0-3.8-.43c-1.33.42-2.07 0-2.53-1.45-.36-1.12-1.31-2.04-2.12-2.04-.8 0-2.57.72-3.91 1.6-2.35 1.54-2.5 1.5-3.68-1.1-1.1-2.4-1.3-2.5-1.95-.85-.4 1.02-.76 3.5-.8 5.54-.04 2.2.6 4.36 1.63 5.38 1.4 1.4 2.97 1.6 8.92 1.16 3.97-.3 8.12-1.03 9.22-1.62zm17.03-7c1.17-4.8 1.13-5.59-.31-7.01-1.5-1.48-1.75-1.46-2.98.2-1.27 1.71-1.47 1.67-3.9-.75-1.4-1.4-3.67-2.56-5.03-2.56-2.56 0-5.63 2.32-5.63 4.25 0 1.8 3.18 4.76 5.12 4.76.98 0 3.01 1.6 4.5 3.56 1.85 2.42 3.38 3.45 4.81 3.25 1.63-.23 2.4-1.5 3.42-5.7zm-27.5-17.72a87.67 87.67 0 0 1 2.27-10.22l1.66-5.7 2 5.28c1.84 4.83 2.15 5.15 3.69 3.75 1.57-1.42 1.55-2.21-.23-12.25-1.7-9.59-2.3-11.21-5.68-15.28-2.07-2.5-5.07-6.52-6.65-8.95-2.72-4.14-2.92-5.19-3.41-17.52-.32-7.97-1.04-14.02-1.83-15.4-.75-1.32-1.22-4.92-1.11-8.52.14-4.75-.37-7.34-2.15-10.98-1.29-2.62-2.58-4.74-2.89-4.72-.3.02-1.46 1.49-2.56 3.26-1.68 2.67-2.74 3.27-6.24 3.52-3.3.24-4.65.93-6.24 3.16-1.12 1.57-2.03 3.12-2.03 3.45 0 .33.68.6 1.5.6 1.07 0 1.5 1.08 1.52 3.75 0 2.06.41 4.38.9 5.15.63 1 2.09 1.24 5.05.84l4.17-.56-.64 2.92c-.36 1.6-.33 4.34.05 6.08.39 1.75 2.6 5.24 4.94 7.77 2.81 3.04 4.62 6.17 5.39 9.28a44.73 44.73 0 0 1 1.15 5.9c0 .65-.94 0-2.09-1.47a18.4 18.4 0 0 0-5.02-4.17c-2.77-1.43-3.06-1.38-5.35.9A16.32 16.32 0 0 0 233 985c-1.54 5.84-3.14 22.28-3.09 31.61.03 4.68.63 9.62 1.39 11.3l1.34 3.01 1.59-3.65c.87-2 2.04-8.46 2.6-14.34.55-5.88 1.46-12.35 2-14.38a22.66 22.66 0 0 1 3.95-7.19l2.95-3.5 1.6 3.78c.89 2.08 1.87 5.7 2.2 8.07.32 2.37.03 6.96-.65 10.22a87.94 87.94 0 0 1-1.69 7.12c-.27.73.67 1.34 2.37 1.53l2.84.33-.37 9c-.37 8.94-.35 9 1.62 7.23 1.15-1.03 2.25-3.7 2.61-6.31zm47.95-43.22c-.28-2.61-.64-4.9-.79-5.08-.15-.18-1.44.28-2.87 1.02l-2.59 1.36 3.08 3.73c1.69 2.05 3.2 3.73 3.38 3.73.16 0 .07-2.14-.21-4.76zm13.6-29.13c2.3-2.12 4.18-4.6 4.18-5.51 0-2.23-4.15-2.17-6.93.1-1.18.96-2.41 3.44-2.74 5.5-.35 2.16-.2 3.76.36 3.76.53 0 2.84-1.74 5.14-3.85zm98.6-12.65c3.2-2.57 4.47-4.18 3.8-4.85-.67-.66-1.51-.58-2.53.27-.85.7-3 1.1-4.8.9l-3.27-.39v4.7c0 2.94.37 4.4 1 3.95.55-.41 3.16-2.47 5.8-4.58zm-35.15-12.9c1.28-.8 2.16-.64 3.59.65 2.01 1.82 5.88 2.22 8.07.84 1.79-1.14 1.11-6.61-.84-6.74-.82-.05-2.06-.16-2.75-.25-.75-.09-1.25-1.65-1.25-3.9v-3.76l-1.99 3.25c-1.09 1.8-2.64 3.26-3.43 3.26-.8 0-2.5-.4-3.79-.89-2.3-.88-2.33-.82-2.25 6.26.05 3.93.2 8.05.35 9.15.15 1.2.73.24 1.43-2.4.64-2.43 1.93-4.9 2.87-5.47zM245.8 915.9c.9-3.7.9-5.2.01-6.26-.64-.77-1.52-1.4-1.96-1.4-.44 0-1.24 2.1-1.8 4.67-.63 2.98-.64 5.57-.03 7.17.54 1.42 1.3 2.1 1.78 1.59.45-.5 1.35-3.1 2-5.77zm108.75 2.37a12.1 12.1 0 0 1 .05-5.2c.64-2.02.8-2.06 1.94-.5 1.15 1.56 1.35 1.57 2.6.07 1.14-1.38 1.02-2.17-.77-5.26-1.16-2-2.8-3.79-3.64-3.96-.93-.19-2.55 1.42-4.12 4.1-1.41 2.42-2.58 5.18-2.58 6.14s1.32 3.06 2.93 4.67c1.61 1.6 3.22 2.92 3.59 2.92.36 0 .36-1.34 0-2.98zm30.43 138.66l-2-4.52 4.3-5.52 4.31-5.52.69 3.95c.8 4.6 3.44 10.12 4.85 10.12.53 0 .97.36.97.8 0 .87-8.4 5.2-10.1 5.2-.56 0-1.92-2.03-3.02-4.51zm61.94-2.68c-2.42-.66-3.75-1.6-3.75-2.67.01-.9.69-3.86 1.5-6.57.83-2.7 1.5-5.3 1.5-5.75 0-.47-.57-.85-1.25-.84-.7 0-3.17 2.48-5.5 5.5-3.75 4.85-4.68 5.5-7.82 5.5h-3.56l2.67-3.49c1.46-1.92 2.43-4.1 2.14-4.86-.68-1.75-12.18-4.76-21.2-5.55-6.5-.57-7.07-.8-7.96-3.37-.84-2.38-.56-3.19 2.1-6 1.68-1.8 6.84-10.69 11.45-19.77 5.78-11.36 9.82-18 12.97-21.28 3.56-3.71 5.27-4.77 7.73-4.77h3.15l-4.38 9c-2.67 5.5-4.17 9.8-3.84 11.05a7.25 7.25 0 0 0 2.53 3.45c1.1.77 2.52 2.44 3.16 3.72.92 1.84 2.28 2.46 6.59 3 3.5.42 5.9 1.3 6.75 2.47.73.99 1.03 2.5.67 3.33-3.1 7.29-4.24 11.05-3.36 11.05.57 0 2.14-.73 3.5-1.62 2.3-1.5 2.47-1.5 2.47.1 0 .94-1.35 2.98-3 4.52-2.16 2.02-3 3.73-3 6.1v3.29l3.04-2.92c2.55-2.45 3.2-2.68 4-1.44 1.28 2.03 1.07 10.64-.4 15.5-1.33 4.46-2.74 4.98-8.9 3.32zm-75.07-6.52c-1.9-2.65-3.78-5.36-4.17-6.03-.41-.72 1.07-.42 3.6.73 2.36 1.07 5.3 1.96 6.55 1.97 1.23.01 2.25.27 2.25.57 0 .3-1.07 2.13-2.38 4.06l-2.38 3.5zm10.62-40.96c-5.42-3.64-8.35-6.45-10-9.61-1.55-2.98-1.87-6.81-.57-6.81.45 0 2.98 1.43 5.62 3.18a35.47 35.47 0 0 1 7.68 7.16c2.74 3.78 3.89 8.68 2.03 8.68-.48 0-2.62-1.17-4.76-2.6zm-98.35-106.05c-1.61-2.05-1.89-3.16-1.15-4.55a7.68 7.68 0 0 1 1.93-2.42c1.28-.8 3.18 6.43 2.17 8.24-.65 1.16-1.23.9-2.95-1.27zm22.87-41.8a51 51 0 0 1 .62-4.95c.5-2.97 1.21-3.9 3.65-4.76a32.3 32.3 0 0 1 3.38-1.05c.2 0 .35 2.2.35 4.9 0 4.61-.2 4.98-3.15 6.01a21.8 21.8 0 0 1-4 1.1c-.48 0-.86-.56-.85-1.25zm113.27-56.6a9.5 9.5 0 0 1-1.13-3.03c0-.51.96-2.16 2.14-3.65 1.65-2.1 2.34-2.42 3-1.4 1.36 2.16.96 5.17-1.03 7.77l-1.86 2.41zM351.05 761c.02-4.13 3.84-11.31 6.27-11.78 3.32-.64 2.97 2.71-.86 8.05-2.08 2.9-4.15 5.7-4.6 6.23-.46.53-.82-.58-.81-2.5zm-8.98-20.23c.93-3.29 5.38-7.74 7.74-7.75.71 0 2.41.73 3.79 1.63 2.42 1.58 2.44 1.7.72 3.65-2 2.24-8.9 5.67-11.48 5.7-1.42.02-1.54-.48-.77-3.23zm29.99-1.18c0-3.35.39-4.58 1.46-4.58.81 0 1.87.8 2.35 1.76 1.22 2.43-.04 6.68-2.1 7.07-1.41.28-1.71-.47-1.71-4.25zm7-.57c0-2.76.4-4.04 1.19-3.78a5.58 5.58 0 0 1 2.25 2.09c.75 1.2.75 2.18 0 3.38a5.58 5.58 0 0 1-2.25 2.09c-.78.26-1.18-1.02-1.18-3.78zm-16.6-13.19c-1.53-2.95-1.53-3.38.03-6.01.94-1.6 1.33-3.38.89-4.08a5.03 5.03 0 0 1-.5-3c.46-2.8-1.77-2.04-3.64 1.24-.93 1.65-2.33 3-3.09 3-.76 0-2.43 1.14-3.7 2.51-1.32 1.42-3.44 2.5-4.9 2.5H345l2.52-4.97c1.38-2.73 2.52-5.21 2.52-5.5 0-.3-.68-.54-1.5-.54-.83 0-1.5-.34-1.5-.75s.9-2.22 1.99-4c1.09-1.8 2.55-3.27 3.25-3.29.7-.02 4.4-4.74 8.23-10.5 7.8-11.73 14.03-19.33 15.02-18.36.37.35.2 3.28-.36 6.5-.57 3.23-1.47 11.4-2.01 18.18-.76 9.48-1.46 13.08-3.05 15.66-1.78 2.87-1.86 3.43-.56 3.93 2.33.89 1.8 5.46-.94 8.2-1.35 1.35-2.92 2.46-3.48 2.46s-1.76-1.43-2.66-3.18zm59.67-55.54c.01-.48 1.32-3.14 2.91-5.92 3.23-5.62 10.22-12.47 12.74-12.47 1.32 0 1.52.7 1.02 3.73a16.81 16.81 0 0 1-2.44 6.2 36.18 36.18 0 0 1-5.29 5.22c-3.51 2.82-8.95 4.78-8.94 3.24zm15.68-2.82c-1.77-1.34-1.74-1.54.63-5.04l2.47-3.64.98 2.82a6.76 6.76 0 0 1-.04 5.06c-.55 1.24-1.27 2.24-1.6 2.22-.33-.01-1.43-.66-2.44-1.42zm-4.06-32.41c-.28-.46 1.72-2.5 4.45-4.53 5.65-4.22 6.75-2.79 1.65 2.15-3.3 3.2-5.15 3.92-6.1 2.38zm-43.33-46.16a45.37 45.37 0 0 1 2.2-9.9c1.25-3.11 2.26-4.11 4.65-4.59 1.68-.34 4.8-2.4 6.94-4.62 2.14-2.2 4.57-4 5.4-4 .82 0 1.5.26 1.5.6 0 .32-.93 1.9-2.08 3.5-1.24 1.76-1.95 4.08-1.77 5.82.24 2.28-.67 3.94-4.3 7.83-2.55 2.71-4.92 5.87-5.29 7.02-.36 1.15-2.06 2.58-3.77 3.18-1.71.6-3.34 1.08-3.6 1.08-.28 0-.22-2.66.12-5.92zm.26-25.28c-.88-1.26-1.6-2.86-1.6-3.56 0-1.6-2.21-1.67-3.75-.14-.86.86-1 .62-.6-.95.5-1.93.25-2.05-3.17-1.5-3.67.6-3.7.57-2.48-1.8.68-1.32 2.15-3.4 3.26-4.62 2.01-2.21 2.02-2.21 4.51-.25 1.38 1.08 3.06 1.97 3.75 1.97.68 0 1.82-1.47 2.53-3.26.7-1.79 2.22-4.32 3.37-5.63l2.1-2.38-3.4 1.72c-2.6 1.33-3.56 1.44-4.14.5-.59-.95-1.51-.98-4.02-.1-1.8.63-3.31 1.14-3.37 1.14-.05 0-.06-2.5-.02-5.56.08-5.48.19-5.67 6.7-12.27 4.83-4.9 7.53-8.73 10.02-14.22 2.65-5.84 4.82-8.82 9.8-13.42l6.4-5.92.64 3.11c.4 1.96-.07 5.2-1.28 8.78-1.05 3.11-1.76 6.13-1.57 6.7.19.56 2.25-1.9 4.58-5.47a37.81 37.81 0 0 0 5.66-13.35c1.3-6.2 1.96-7.37 7.03-12.41l5.59-5.57 1.96 2.5c1.66 2.13 2.1 2.28 2.95 1 .55-.82 1-2.91 1-4.64.02-2.38.94-3.96 3.75-6.43 2.06-1.8 6.43-5.02 9.72-7.14 5.78-3.74 11.77-5.96 20.02-7.41l3.92-.7-2.23 3.14c-1.22 1.72-6.04 7.9-10.7 13.73-5.45 6.84-7.74 10.37-6.44 9.96 1.1-.35 2.01-.33 2.01.05 0 .37-3.5 4.33-7.76 8.8l-7.76 8.1 6-4.94c3.31-2.72 9.33-7.8 13.38-11.3 4.05-3.49 7.57-6.13 7.83-5.87.26.26-.3 1.96-1.24 3.79-.95 1.82-10.56 11.9-21.36 22.37a2286.16 2286.16 0 0 0-24.34 23.88c-3.09 3.15-6.53 8.5-9.95 15.5-2.89 5.86-7.07 12.66-9.31 15.09l-4.07 4.42-.5-3.32c-.27-1.82-1.04-3.49-1.7-3.7-.67-.23-1.68 1.26-2.33 3.42-1.24 4.14-2.34 5.83-5.65 8.64-2.08 1.76-2.18 1.75-3.74-.48zm46.05-26.06c.43-.72 4.53-7.13 9.11-14.24 4.58-7.11 8.33-13.48 8.33-14.15 0-.67 3.16-4.2 7.03-7.85 6.35-6 8.99-7.76 8.99-6.01 0 .34-1.62 2.81-3.59 5.5-1.97 2.7-3.16 4.9-2.64 4.9 1.32 0 9.16-8.55 13.08-14.27 1.8-2.62 4.63-5.47 6.3-6.33 2.13-1.1 4.26-1.38 7.02-.91 2.96.5 3.9 1.1 3.66 2.33-.2 1.04-1.5 1.77-3.56 1.96-1.79.18-3.25.7-3.25 1.15 0 .46.78 1.13 1.74 1.5 1.45.55 1.1 1.21-2.26 4.11-2.19 1.9-6.58 5.1-9.76 7.11-4.65 2.94-5.65 4.04-5.15 5.61.49 1.55-1.84 4.37-11.02 13.37-6.4 6.27-12.16 11.4-12.8 11.4-.62 0-3.59 1.38-6.58 3.07s-5.08 2.48-4.65 1.75zm16.44-3.69c0-1.21 6.81-8.47 18.12-19.3 9.97-9.56 19.32-18.16 20.78-19.12 1.46-.96 3.5-1.75 4.52-1.75 1.55-.01 1.75.46 1.13 2.74-.41 1.52-.71 4.66-.67 6.98.07 3.8-.35 4.58-4.13 7.63-2.31 1.87-8.57 6.4-13.9 10.07-8.93 6.15-9.71 6.5-10 4.46-.3-2.01-.85-1.75-6.34 3.07-3.3 2.9-6.8 5.7-7.76 6.22-1.4.75-1.75.55-1.75-1zm64.5-19.28c-.3-.49-.24-1.85.13-3.01.45-1.44.3-1.9-.46-1.43-.61.39-2.45-.56-4.08-2.1-2.67-2.51-2.96-3.39-2.89-8.83.04-3.32.67-7.45 1.38-9.19 1.57-3.77 14.88-18.03 17.66-18.92 2.8-.88 12.58-13.08 14.1-17.58.7-2.09 4.57-7.42 8.6-11.86 4.04-4.43 7.76-8.06 8.27-8.06 2.09 0 .7 4.11-3.1 9.16-3.57 4.76-3.84 5.49-2.4 6.54.9.65 1.33 1.67.97 2.26-.37.58-.36 1.06.01 1.06s2.43-.98 4.58-2.19c3.01-1.7 4.17-1.92 5.09-1 .65.65 1.52 1.19 1.92 1.19.4 0 1.01-.87 1.35-1.92.33-1.06 3.16-4.78 6.28-8.26 4.68-5.23 6.14-6.29 8.39-6.04 2.66.3 2.74.14 3.95-7.5l1.23-7.82 10.92-10.98c8.18-8.22 11.14-10.63 11.78-9.6.63 1.02 1.76-.04 4.32-4.04a50.34 50.34 0 0 1 8.36-9.5c10.68-8.96 26.54-21.46 27.2-21.46.4 0 3.2-2.02 6.21-4.5 3.02-2.48 5.93-4.5 6.46-4.5.53 0 2.33-1.32 4-2.93a41.86 41.86 0 0 1 7.57-5.35 706.62 706.62 0 0 0 28.29-17.17c2.65-1.76 2.75-1.76 2.75-.01 0 1-3.1 8.14-6.9 15.88-6.81 13.93-7.04 14.24-21.27 29.23-7.91 8.33-19.22 19.03-25.13 23.78s-11.2 8.63-11.77 8.63c-.56 0-1.02.59-1.02 1.3 0 1.87-6.49 7.91-8.13 7.59-.76-.15-3.48.07-6.05.48-2.57.4-4.9 1.32-5.17 2.04-.27.7-.12 1.89.33 2.61 1.04 1.7-2.94 7.25-4.71 6.57-.73-.28-2.05.92-3.05 2.78-.97 1.8-5.64 6.97-10.4 11.5-6.16 5.87-9.1 8.04-10.3 7.58-1.17-.45-3.7 1.27-8.47 5.74-3.75 3.51-8.7 7.89-11.02 9.73-3.23 2.57-4.06 3.8-3.57 5.35.49 1.53-.57 3.17-4.5 6.95-2.83 2.73-5.58 4.68-6.12 4.35-.54-.34-2.49.32-4.32 1.45s-3.57 1.82-3.87 1.53c-.29-.3.8-1.86 2.42-3.48 2.92-2.93 3.03-4.98.25-4.98-.79 0-1.44-.9-1.44-2 0-2.11-1.46-2.7-2.5-1-.34.55-1.04 1-1.55 1-.54 0-.66-2.63-.3-6.26.64-6.17.62-6.23-1.34-4.5-1.09.96-2.28 1.75-2.65 1.75-.37 0-.67-.99-.67-2.2 0-1.55-1.04-.46-3.58 3.76-1.96 3.27-4.52 6.96-5.68 8.2-1.16 1.24-1.64 2.26-1.07 2.26.58 0 1 1.69.93 3.75l-.11 3.76 3.84-.3c3.52-.29 3.78-.14 3.15 1.84-.59 1.85-.38 2.06 1.42 1.5 1.15-.38 2.1-.3 2.1.17s-.7 1.85-1.56 3.07c-.86 1.23-1.29 2.67-.95 3.22.91 1.48-4.14 9.49-6.92 10.98a6.76 6.76 0 0 0-3.03 3.68c-.33 1.3-.98 2.37-1.44 2.37-.47 0-2.13 1.01-3.7 2.25-2.93 2.3-8.03 3.23-9.01 1.63zm-43.93-34.67c3.64-4.27 7.7-8.34 9.04-9.04 2.27-1.2 2.43-1.12 2.43 1.21 0 1.38-1.36 4.06-3.03 5.96-3.19 3.63-11.83 9.63-13.86 9.63-.66 0 1.78-3.5 5.42-7.76zm35.5 2.62c0-1.41 1.03-4.1 2.28-5.95 2.61-3.88 13.48-12.94 15.5-12.94 1.98 0-3.57 7.4-11.3 15.06-5.96 5.9-6.48 6.2-6.48 3.83zm622.48-8.86a206.5 206.5 0 0 1-8.28-5.32c-.23-.23 3.28-1.15 7.8-2.06 4.5-.9 8.29-1.53 8.4-1.4.11.14.52 3.3.91 7 .39 3.73.33 6.75-.13 6.73-.45-.02-4.37-2.25-8.7-4.95zm-617.47-8.87c0-2.35 1.04-3.9 4.76-7.09 3.05-2.61 5.74-4.07 7.5-4.08 1.52 0 2.76-.49 2.76-1.07a9.1 9.1 0 0 0-1.09-3.1c-.89-1.67-.7-2.3 1-3.5 1.15-.8 2.1-2.11 2.1-2.9 0-.8.46-1.45 1.04-1.45.58 0 2.16-1.2 3.5-2.65 1.36-1.46 2.46-2.25 2.47-1.75 0 .49.9-.57 1.98-2.36 2.08-3.41 4.43-4.23 5.35-1.85.3.77-.1 2.24-.87 3.25-2.6 3.44-1.48 3.76 1.72.48 1.75-1.79 4.07-3.73 5.16-4.31 1.64-.88 1.87-.78 1.35.56-.35.92-.11 1.62.56 1.62.64 0-.61 1.85-2.79 4.11-4.29 4.46-20.53 17.77-26.99 22.12-2.2 1.48-5.24 3.66-6.76 4.84l-2.75 2.14zm9.51-2.16c.34-.55 1.38-1 2.31-.99 1.46.01 1.49.15.2.99-1.97 1.26-3.3 1.26-2.5 0zm-75.96-1.5c.36-.95-.01-1.5-.99-1.5-.86 0 2.71-4.15 7.94-9.2 9.76-9.44 11.2-10.35 35.97-22.63a140.27 140.27 0 0 0 14.72-8.46c5.06-3.54 5.9-3.83 7.2-2.52 1.32 1.31 1.14 1.82-1.58 4.37a24.87 24.87 0 0 0-4.7 6.46c-.97 2.1-6.14 7.59-12.52 13.27l-10.87 9.69h-5.68c-3.59 0-7.04.7-9.39 1.9a37.78 37.78 0 0 1-6.24 2.52c-1.38.35-4.97 2.2-7.96 4.12-3 1.91-5.68 3.48-5.96 3.48-.29 0-.26-.68.06-1.5zm68.45-9.18c0-.4 1.21-2 2.7-3.54 1.47-1.54 3.35-2.8 4.17-2.8 1.08 0 .82.71-.94 2.59-2.65 2.84-5.93 4.91-5.93 3.75zm-3-6.85c.93-2.44.83-2.5-3.53-2.5-3.76 0-4.48-.31-4.48-1.94 0-1.07 1.97-3.55 4.44-5.57 3.7-3.04 4.78-3.46 6.44-2.57 1.1.59 2.6 1.07 3.33 1.07.95 0 1.22-1.24.97-4.4-.3-3.92.07-4.86 3.45-8.61 2.82-3.12 7.63-6.12 18.6-11.62 8.15-4.08 15.36-7.42 16.03-7.42 1.93 0-6.71 8.32-18.47 17.77-5.92 4.76-10.76 9.02-10.76 9.46 0 1.77 2.85.63 6.74-2.7 2.25-1.92 4.5-3.5 5.01-3.5.5 0 2.01-1.16 3.35-2.6 3.29-3.51 11-9.1 14.27-10.35 1.47-.56 2.67-.88 2.67-.71 0 .16-5.19 4.53-11.53 9.71-7.97 6.51-11.06 9.59-10 9.96 1.18.41.53 1.52-2.73 4.65-5.45 5.23-19.84 14.38-22.63 14.38-1.85 0-2-.32-1.17-2.5zm51.07-2.4c0-1.2 7.22-7.23 7.87-6.58.26.26-.61 1.65-1.94 3.07-2.91 3.1-5.93 4.9-5.93 3.52zm535.22-6.08c-9.66-2.14-16.94-5.96-22.03-11.59-2.99-3.3-47.89-32.4-52.82-34.24-2.97-1.11-7.82-5.1-16.05-13.2l-11.78-11.6.64-4.29c.48-3.22.24-4.74-.98-6.08-.89-.98-4.25-3.08-7.48-4.65-4.3-2.1-6.16-3.66-7-5.87-.62-1.65-1-3.12-.86-3.27.14-.14 5.38 1.04 11.64 2.62 6.26 1.58 11.68 3.36 12.04 3.94.36.59 4.01 4.93 8.1 9.65a211.76 211.76 0 0 0 16.8 16.78c11.13 9.75 36.5 28.09 50.77 36.7 5.63 3.4 13.05 7.31 16.5 8.7a67.03 67.03 0 0 0 12.9 3.5c3.65.52 8.81.65 11.47.3 4.39-.6 5.12-.4 7.76 2.14 1.6 1.54 2.92 3.13 2.92 3.55 0 .41-2.88 2.17-6.4 3.9-5.16 2.54-7.95 3.23-14.27 3.52-4.33.2-9.67-.03-11.87-.51zm-529.59-7.29a11.48 11.48 0 0 1 3.04-5.5c1.35-1.24 2.88-2.26 3.4-2.26 1.51 0 1.1 3.35-.76 6.04-1.82 2.64-4.34 4.9-5.53 4.94-.4.02-.47-1.43-.15-3.22zm-23.07.1c1.35-2.27 8.42-8.23 8.42-7.08 0 .54-2.1 2.7-4.66 4.8-2.57 2.11-4.26 3.14-3.76 2.28zm5.92-.85c.34-.55 1.52-1 2.62-1s1.73.45 1.39 1c-.34.55-1.52 1-2.62 1s-1.73-.45-1.39-1zm28.54-11.4c0-.76 1.91-3.04 4.26-5.07 2.34-2.02 6.28-5.62 8.76-8 5.43-5.2 11.89-10.03 12.54-9.38.26.26-4.6 5.74-10.8 12.17-10.35 10.77-14.76 13.84-14.76 10.28zm-2-6.44c0-2.45 5.3-7.4 7.16-6.69.95.37 3.35-1.46 6.67-5.1 2.86-3.11 5.2-6.02 5.2-6.45 0-1.5 6.29-6.08 9.12-6.65 1.6-.32 3.95-2.04 5.4-3.92 3-3.94 15.3-12.98 16.3-11.98 1 1.01-18.93 19.28-34.64 31.72-7.54 5.97-14.05 10.87-14.46 10.87-.41.01-.75-.8-.75-1.8zm-38.55-4.66c2.89-2.44 9.22-5.16 10.04-4.33.22.22-2.62 1.85-6.32 3.62-6.25 3-6.51 3.05-3.72.7zm19.13-9.63a93.24 93.24 0 0 0 4.4-3.63c.27-.3-2.02.87-5.1 2.6-3.06 1.71-6.2 3.12-6.95 3.12-1.95 0 4.67-6.71 10.04-10.17 2.47-1.6 7.5-3.8 11.17-4.9 3.68-1.09 9.27-3.13 12.43-4.53 4.39-1.94 5.94-2.25 6.53-1.3.5.83-.97 2.55-4.35 5.07-2.8 2.1-5.65 3.81-6.31 3.81-.67 0-4.17 2.03-7.78 4.5-3.61 2.48-8.87 5.4-11.67 6.51-2.8 1.1-5.37 2.01-5.7 2.01-.33 0 1.15-1.39 3.3-3.09zm19.81-2.5c.33-.87.6-1.75.6-1.96 0-.21 2.6-2.15 5.77-4.3 3.16-2.16 6.65-4.93 7.75-6.15a20.67 20.67 0 0 1 5.01-3.77c2.92-1.49 2.96-1.48 1.33.36a12.86 12.86 0 0 0-2.34 4.57c-.44 1.78-1.9 3.26-4.33 4.39a63.08 63.08 0 0 0-8.3 5.08c-2.56 1.85-4.97 3.37-5.37 3.37-.4 0-.45-.72-.12-1.59zm22.64-11.95c0-.36 1.59-2.59 3.53-4.96 3.6-4.4 8.04-6.99 10.94-6.38 1.06.23-.7 2.08-5.18 5.44-7.73 5.8-9.3 6.8-9.3 5.9zm480.15-19.11c-4.2-1.54-7.3-3.95-6.32-4.93.64-.64 13.83 1.46 13.83 2.2 0 1.07-2.13 4.33-2.8 4.26-.39-.04-2.51-.73-4.71-1.53zm-203.78-7.4c-1.38-.45-5-.85-8.06-.9-5.04-.1-5.89-.46-9.21-3.86l-3.66-3.76 1.93-2.5c1.06-1.38 1.94-3.49 1.96-4.7 0-1.3-1.2-3.05-3.05-4.36-1.69-1.2-8.1-4.38-14.27-7.07-7.23-3.15-10.26-4.89-8.55-4.9 1.46 0 6.51 1.4 11.23 3.12 5.2 1.9 9.28 2.85 10.37 2.41 1.63-.65 1.57-.86-.57-2.37a57.62 57.62 0 0 0-7.51-3.95l-5.16-2.29 6.57.4c6.76.43 14.82 3.31 18.46 6.61 1.1 1 3.81 2.4 6.02 3.1 2.2.7 5.8 2.54 8 4.1a23.84 23.84 0 0 0 8.4 3.5l4.4.69-2.9 1.44c-1.58.8-3.87 2.61-5.07 4.04l-2.2 2.6-7.86-3.69c-7.68-3.6-11.29-4.52-11.29-2.88 0 1.3 5.32 5.92 7.51 6.52 1.1.3 5.37 1.53 9.47 2.72l7.46 2.17-3.96 2.4c-2.17 1.32-4.4 2.35-4.95 2.3-.56-.05-2.13-.46-3.5-.9zM845.2 297.4c-12-.88-22.42-2.17-21.03-2.61.55-.18 10.69-1.46 22.53-2.85 13.94-1.64 26.78-3.83 36.42-6.21l14.9-3.68 12.64 2.57 12.64 2.56-8.89.12c-7.69.1-9.72.51-15.02 3.1a78.7 78.7 0 0 1-12.14 4.53c-6.32 1.64-22.6 3.53-28.54 3.32-1.92-.07-8-.45-13.51-.85zm13.4-40.83c.61-1.13.83-2.77.5-3.64-.33-.87-1.68-1.86-3-2.19-1.32-.33-2.4-.92-2.4-1.33 0-.4 3.5-1.5 7.77-2.45 6.26-1.4 11.62-1.67 27.78-1.42l20.02.31-16.01 5.16c-8.81 2.84-18.5 5.44-21.53 5.78-3.03.34-7.47.9-9.87 1.23-4.16.58-4.3.52-3.25-1.45zm53.19-15.64c0-.3 2.73-1.94 6.08-3.63 5.82-2.93 6.34-3.02 11.6-1.93 3.03.63 5.35 1.3 5.16 1.49-.18.18-4.61 1.07-9.84 1.96-5.22.89-10.29 1.85-11.25 2.14-.97.29-1.75.27-1.75-.03z"/><path fill="#1d3d57" d="M895.47 1902.93c-81.06-5.13-156.58-19.12-233.38-43.22-28.77-9.03-65.45-22.97-95.77-36.39-20.9-9.24-57.79-27.58-76.77-38.15a950.06 950.06 0 0 1-63.85-38.98 903.83 903.83 0 0 1-63.36-45.8c-32.12-25.32-57.85-48.49-89.44-80.52-21.87-22.17-38.1-39.97-54.66-59.95a966.48 966.48 0 0 1-83.2-117.19c-14.17-23.52-23.63-40.93-37.81-69.61-14.28-28.88-24.72-52.6-35.48-80.64C32.94 1217.4 13.38 1136 4.61 1054.6.5 1016.53-.01 1005.14 0 951.42c.01-51.9.33-59.64 4.06-97.16 1.85-18.65 6.57-52.33 10.04-71.62a940.84 940.84 0 0 1 32.06-126.83A977.21 977.21 0 0 1 85.4 555.26a1009.5 1009.5 0 0 1 53.12-99.66c12.17-19.84 33.67-51.76 46.56-69.11a1117.32 1117.32 0 0 1 51.36-63.6c8.19-9.37 27.07-29.23 41.97-44.13 14.9-14.9 34.75-33.78 44.12-41.97 20.31-17.76 47.14-39.32 66.82-53.7 20.6-15.04 51.15-35.3 72.2-47.87 10.03-5.99 25.9-15.09 35.27-20.23 20.25-11.11 53.08-27.18 74.62-36.52a1059.3 1059.3 0 0 1 65.25-25.56c35.29-12.47 82.86-25.63 121-33.49A995.48 995.48 0 0 1 866.42 3.43C899.09.51 927.63-.42 966.09.17c47.24.72 79.5 3.18 122.2 9.31a943.77 943.77 0 0 1 215.36 57.55 1272 1272 0 0 1 34.56 14.43c24.05 10.63 59.3 28.5 83.63 42.39 67.7 38.66 125.56 81.5 183.95 136.22 15.87 14.86 40.57 40.27 56.68 58.3 15.35 17.18 35.8 42.23 51.12 62.6 8.29 11.02 22.1 30.63 30.71 43.58 23 34.57 38.17 60.49 56.6 96.66a1081.56 1081.56 0 0 1 16.83 34.56 978.53 978.53 0 0 1 38.7 99.16 919.05 919.05 0 0 1 28.64 108.67c6.9 34.3 11.9 69.02 15 104.18 2.9 32.87 3.84 61.31 3.25 99.16-.86 55.05-4.52 95.45-13.28 146.75a945.19 945.19 0 0 1-72.26 234.38c-14.65 32.13-29.74 60.74-49.52 93.86-12.56 21.05-32.82 51.6-47.87 72.2-14.4 19.71-35.95 46.54-53.7 66.83-8.19 9.37-27.08 29.22-41.97 44.13-14.9 14.9-34.6 33.66-43.8 41.68-33.27 29.03-64.9 53.4-98.48 75.9a1271.42 1271.42 0 0 1-34.55 22.28c-48.17 29.58-106.83 58.3-159.82 78.27-9.34 3.52-26.67 9.6-38.51 13.5-38.04 12.54-70.37 21.04-111.18 29.23a997.75 997.75 0 0 1-79.64 12.5c-35.23 3.98-49.27 4.69-99.16 5.03-27.55.19-56.4-.06-64.1-.55zm21.97-49.27c.3-2.34 1.68-19.13 3.05-37.31 1.38-18.18 2.76-35.37 3.08-38.2l.57-5.15 4.7-1.26c4.94-1.33 6.97-2.53 5.96-3.54-.33-.33-5.7-1-11.95-1.5a1002.5 1002.5 0 0 1-16.6-1.42c-4.19-.42-5.27-.24-5.27.92 0 .87 2.43 2.34 6.01 3.65 5.27 1.92 6.01 2.52 6 4.81-.02 1.44-.91 13.22-1.99 26.16-1.08 12.95-1.99 24.9-2.02 26.55l-.06 3-1.37-3c-.75-1.66-10.13-16.98-20.83-34.06l-19.47-31.05-14.44-1.15c-7.93-.63-14.77-.94-15.18-.7-1.84 1.12-.34 2.4 5.2 4.41 3.26 1.2 6.14 2.7 6.39 3.34.25.65-.87 17.84-2.48 38.2-2.37 29.83-3.24 37.26-4.49 38.21-.85.65-3.31 1.48-5.47 1.84-2.24.38-3.9 1.23-3.9 2 0 1.53 3.64 2.18 17.02 3 5.23.32 11.2.83 13.27 1.13 2.95.43 3.76.21 3.76-1 0-.96-2.23-2.34-6.01-3.72-5.58-2.03-6.01-2.41-6.04-5.31 0-1.72.98-16.07 2.2-31.9 1.93-24.85 2.4-28.38 3.46-25.87.67 1.6 11.22 18.47 23.43 37.49 12.22 19.02 22.96 34.77 23.87 35.02.91.24 3.32.49 5.35.55 3.62.11 3.7.03 4.25-4.14zm82.03 2.76c3.16-.82 7.52-2.4 9.7-3.51 4.67-2.39 10.36-7.85 12.52-12.04a36.19 36.19 0 0 0 2.5-8c1.23-6.52-.25-14.32-3.65-19.23-1.44-2.08-4.93-5.28-7.75-7.13-2.82-1.84-9.79-5.29-15.48-7.67-5.89-2.45-11.82-5.7-13.77-7.55-3.05-2.87-3.43-3.8-3.43-8.46 0-4.56.4-5.62 3.08-8.12 1.7-1.58 4.64-3.17 6.56-3.52 4.8-.9 13.31-.07 16.83 1.65 2.25 1.1 3.38 2.8 4.85 7.2 1.62 4.9 2.27 5.76 4.33 5.76 2.14 0 2.42-.45 2.42-3.86 0-2.12-.3-6.62-.64-9.99-.62-5.93-.75-6.16-4.26-7.38-2-.7-8.34-1.27-14.13-1.29-7.61 0-11.96.48-15.7 1.79-2.85 1-7.2 3.59-9.68 5.77-2.48 2.18-5.45 5.9-6.6 8.27-1.43 2.97-2.08 6.28-2.08 10.6 0 3.75.66 7.7 1.63 9.74.9 1.88 3.62 5.18 6.05 7.32 2.57 2.27 8.89 5.83 15.14 8.56 5.9 2.56 12.46 5.79 14.57 7.16 2.1 1.38 4.48 4.04 5.26 5.91a21.16 21.16 0 0 1 1.42 6.8c0 1.86-1.01 4.9-2.25 6.74a21.27 21.27 0 0 1-5.76 5.4c-2.76 1.62-5.14 2.04-11.15 1.98-5.66-.07-8.5-.6-11-2.05-2.74-1.6-3.7-3.12-5.22-8.18-1.64-5.49-2.15-6.21-4.38-6.21h-2.53l.38 10.45c.22 5.75.66 10.73.99 11.06 1.18 1.18 13.5 3.37 19.43 3.45 3.32.04 8.63-.6 11.8-1.42zm93.21-9.01c3.8-.8 8.98-2.47 11.52-3.7 6.62-3.2 13.47-10.42 15.48-16.3.92-2.7 1.67-7.45 1.67-10.56 0-4.18-.72-7.06-2.76-11.08a26.8 26.8 0 0 0-7.07-8.69c-2.9-2.18-8.68-4.61-17.53-7.38-7.27-2.27-14.73-5.05-16.58-6.17a13.95 13.95 0 0 1-4.84-5.56 13.14 13.14 0 0 1-.87-6.68c.67-3.6 4.7-7.89 8.9-9.47 3.7-1.4 12.56-1.36 16.67.08 2.58.9 3.78 2.28 5.65 6.5 1.7 3.86 2.93 5.38 4.33 5.38 1.08 0 2.16-.34 2.4-.75.25-.42-.2-4.8-1-9.74-.79-4.95-1.98-9.34-2.63-9.76-1.99-1.26-19.88-.86-25.24.57a50.22 50.22 0 0 0-8.25 3.01c-5.03 2.6-10.2 7.57-12.43 11.94a31.45 31.45 0 0 0-2.57 9.22c-.3 3 0 6.9.71 9.14a29.24 29.24 0 0 0 3.67 7.13 26.5 26.5 0 0 0 6.63 5.7c2.33 1.36 10.09 4.36 17.25 6.67 10.85 3.5 13.65 4.84 16.78 7.96 3.43 3.43 3.75 4.22 3.75 9.3 0 4.57-.48 6.12-2.71 8.77a22.85 22.85 0 0 1-6.76 5.06c-5.4 2.46-16.02 2.52-19.92.13-1.76-1.08-3.75-3.86-5.2-7.26-1.95-4.57-2.73-5.46-4.6-5.23-1.24.15-2.37.4-2.52.54-.33.33 2.82 20.05 3.3 20.63.62.76 7.85 1.86 12.87 1.96a65.1 65.1 0 0 0 11.9-1.36zm-302.58-8.84c-3.33-3.79-2.18 2.95-11.18-65.3l-3.7-28.04-5.58-1.42c-3.06-.78-6.2-1.17-6.98-.88-.77.3-12.77 16.74-26.65 36.53-13.89 19.8-26.05 36.72-27.05 37.61-.99.9-3.04 1.94-4.55 2.31-3.09.77-3.68 3.07-1 3.87 3.19.95 24.12 5.62 25.22 5.62.59 0 1.07-.56 1.06-1.25 0-.7-1.83-2.3-4.06-3.57-2.23-1.27-4.3-2.94-4.59-3.7-.3-.77 2.27-5.49 5.69-10.48 3.42-5 6.5-9.24 6.85-9.44.34-.2 7.61 1.28 16.15 3.28l15.52 3.64 1.24 11c.68 6.06 1.03 11.58.79 12.27-.25.7-1.54 1.25-2.87 1.25-4.28 0-8.67 1.23-8.67 2.42 0 1.45 35.2 9.67 36.46 8.52.51-.46-.4-2.3-2.1-4.24zm-40.14-42.61c-6.22-1.45-11.17-3.09-11.02-3.64.15-.56 5-8.1 10.8-16.74l10.51-15.74.72 8.4a720.5 720.5 0 0 0 2.06 19.49c1.2 9.93 1.17 11.08-.22 10.98-.86-.07-6.64-1.3-12.85-2.75zm431.24 31.16c10.14-2.64 18.27-5.27 18.28-5.9 0-1.34-3.25-2.33-7.66-2.35-2 0-3.38-.62-3.78-1.67-.35-.91-4.68-17.07-9.62-35.9-4.95-18.84-9-35.22-9-36.4 0-1.42 1.37-3 4.01-4.68 2.2-1.39 4.01-3.16 4.01-3.94 0-1.1-4.22-.31-18.62 3.44-10.24 2.67-18.84 5.08-19.13 5.36-.28.29-.22 1 .15 1.59.36.58 2.6 1.06 4.98 1.06 2.38 0 4.79.57 5.35 1.26 1.23 1.51 19.26 69.98 19.26 73.16 0 1.53-1.26 3.02-4.01 4.72-2.2 1.36-4 3.04-4 3.74 0 .7.33 1.27.75 1.27.4 0 8.97-2.13 19.03-4.76zm-194.07-109.48c23.8-1.15 53.19-3.93 74.53-7.03a872.75 872.75 0 0 0 61.7-11.48c20.61-4.63 55.4-14.57 77.12-22.04a779.7 779.7 0 0 0 132.22-60.08 812.36 812.36 0 0 0 90.3-60.83c34.17-26.64 71.14-61.35 101.62-95.42a761.18 761.18 0 0 0 40.29-49.47 796 796 0 0 0 64.57-101.78c16.55-31.19 33.3-69.45 45.17-103.17a777.12 777.12 0 0 0 39.1-174.79c2.85-27.91 3.8-47.82 3.8-79.63 0-17.63-.52-39.49-1.16-48.58-2.55-36.37-6.63-67.64-13.07-100.17a763.53 763.53 0 0 0-39.59-134.3c-8.52-21.45-15.85-37.71-27.48-60.91a716.21 716.21 0 0 0-45.64-78.74c-19.99-30.14-44.6-62.04-67.94-88.05-14.2-15.83-38.9-40.68-55.25-55.6a977.85 977.85 0 0 0-27.05-23.65c-26.05-21.72-65.92-50.07-93.65-66.6a784.86 784.86 0 0 0-51.19-28.09c-23.2-11.62-39.46-18.95-60.9-27.47a763.54 763.54 0 0 0-134.31-39.6c-32.53-6.43-63.8-10.52-100.17-13.07-21.13-1.48-75.74-1.5-97.16-.03-60.97 4.19-117.47 14.35-173.06 31.14-34.72 10.48-64.51 21.77-98.4 37.29-47.98 21.97-96.54 50.96-139.82 83.47a768.2 768.2 0 0 0-48.98 39.9c-30.95 27.67-63.93 62.3-89.27 93.76a923.05 923.05 0 0 0-31.06 41.57 792.3 792.3 0 0 0-67 116.7c-9.19 19.8-22.47 52.93-29.51 73.61a784.37 784.37 0 0 0-31.46 127.21c-3 18.78-6.1 46.14-7.56 66.61-1.88 26.52-2.35 61.88-1.15 86.65 2.32 48.03 7.93 90.6 17.74 134.72 5.56 25.03 11.95 47.88 20.86 74.62 17.84 53.5 39.03 99.93 67.92 148.75 11.99 20.27 30.85 48.38 46.04 68.61 23.54 31.35 43.03 53.77 71.4 82.14 28.36 28.36 50.77 47.85 82.13 71.39 18.58 13.94 47.35 33.4 65.32 44.18 35.27 21.13 76.32 41.38 113.41 55.93 44.1 17.3 92.33 31.27 137.29 39.76a804.64 804.64 0 0 0 67.61 9.6 745.9 745.9 0 0 0 111.69 2.96zm-60.04-232.44c-36.49-19.17-85.25-51.2-126.1-82.81-16.76-12.97-42.1-34.2-59.27-49.65-18.5-16.64-55.05-53.26-70.65-70.77a1369.76 1369.76 0 0 1-24.56-28.55 1040.56 1040.56 0 0 1-48.2-63.6 892.7 892.7 0 0 1-49.18-81.14c-12.39-23.31-26.6-56.96-37.38-88.53-11.72-34.3-22.04-72.48-29.95-110.8-7.56-36.67-15-85.88-18.99-125.7-4.3-43-7.54-100.47-7.56-134.32v-13.11l13.27-7.36c7.3-4.05 28.14-14.85 46.32-24.01 54.88-27.65 85.35-41.87 136.23-63.57 46.64-19.9 82.77-33.95 137.72-53.6 33.21-11.87 92.8-31.51 119.7-39.47 35.39-10.45 35.99-10.62 36.64-9.86l5.76 7 5.14 6.3-8.24 7.16c-11.52 10.01-31.46 30.28-43.18 43.9-20.26 23.53-44.67 58.25-61.12 86.92A741.3 741.3 0 0 0 784.66 720a783.78 783.78 0 0 0-20.45 69.62c-3.54 14.43-4.87 18.36-6.7 19.78-3.53 2.74-29.19 15.23-40.33 19.62-5.51 2.18-15.2 5.63-21.54 7.67-13.3 4.29-35.37 9.72-49.01 12.06-5.2.89-10.93 2.24-12.75 3a13.52 13.52 0 0 0-5.32 4.7c-1.12 1.82-2.03 4.57-2.03 6.11s.65 4.07 1.45 5.61c.8 1.55 2.51 3.5 3.81 4.36 1.3.85 7.75 3.44 14.33 5.76 17.45 6.14 27.2 10.3 43.65 18.64 15.06 7.62 36.82 21.48 47.4 30.17l5.95 4.9-.26 22.98c-.14 12.63.23 31.31.83 41.5a732.99 732.99 0 0 0 8.62 76.13c10.29 62.45 28.82 125.87 54.74 187.3 8.24 19.55 25.03 54.34 34.5 71.46a811.68 811.68 0 0 0 31.57 52.01c9.35 13.98 25.4 35.4 36.97 49.32 4.58 5.51 16.13 17.87 25.67 27.45l17.35 17.44-5.64 7.36c-3.1 4.04-5.92 7.35-6.28 7.34-.35 0-6.7-3.2-14.1-7.1zm39-281.04c-12.29-1.98-34.08-6.75-63.1-13.81-19.01-4.62-41.1-9.76-49.08-11.41-17.13-3.55-34.07-6.15-40.2-6.17-2.4 0-4.93-.37-5.61-.8-.93-.6-.36-3 2.3-9.75 7.3-18.52 13.16-42.45 15.44-63.06 1.48-13.29 1.24-36.8-.52-50.28-2.88-22.2-8.2-40.46-17.43-59.9a252.17 252.17 0 0 0-10.83-20.25 271.68 271.68 0 0 0-11.37-16.53c-3.44-4.56-12.37-14.4-19.85-21.84-7.48-7.46-18.45-17.15-24.37-21.54a406.62 406.62 0 0 0-21.53-14.74c-12.29-7.7-36.2-19.74-50.57-25.44-5.37-2.12-9.76-4.1-9.77-4.39-.01-.29 3.8-1.31 8.47-2.27 12.36-2.55 34.98-9.2 48.96-14.4 6.7-2.48 19.38-8 28.2-12.27 8.81-4.26 20.98-10.82 27.04-14.57 21.42-13.26 41.32-29.25 57.58-46.26 17.72-18.54 33.6-40.11 47.6-64.73 7.93-13.92 18.25-36.7 25.6-56.5l5.28-14.21 6.53 10.7c12.85 21.07 23.17 34.13 39.35 49.8 5.7 5.52 13.08 12.1 16.39 14.63a208.68 208.68 0 0 0 34.78 21.4 252.98 252.98 0 0 0 24.82 9.9c7.43 2.46 18.03 5.38 23.54 6.5 5.5 1.12 15.65 2.83 22.53 3.8 9.52 1.32 19 1.73 39.57 1.68 21.1-.04 31-.53 45.07-2.2a709.01 709.01 0 0 0 31.56-4.53c7.43-1.31 13.67-2.25 13.85-2.1.19.17-1.89 3.6-4.6 7.65-14.47 21.47-32.89 55.35-42.66 78.46-6.84 16.16-13.84 36.5-17.74 51.48a315.7 315.7 0 0 0-7.93 45.03 239.76 239.76 0 0 0 0 43.36 236.67 236.67 0 0 0 7.55 39.55c4.87 16.85 12.84 34.86 22.72 51.3 5.73 9.54 17.95 26.25 24 32.82 2.26 2.44 3.92 4.62 3.7 4.83-.22.22-4.45-.45-9.41-1.49-23.93-5-52.76-7.5-74.92-6.51-8.14.36-20.69 1.52-27.87 2.58a264.16 264.16 0 0 0-24.52 4.97c-27.79 7.42-48.15 18.59-63.72 34.94-6.74 7.09-9.47 10.9-13.1 18.32-2.55 5.22-5.33 12.86-6.28 17.28-1.27 5.85-1.57 10.57-1.17 18.03.3 5.56.86 10.9 1.24 11.87.74 1.82.02 1.96-5.52 1.07zM515.93 1699.6c2.06-1.27 4.34-4.12 5.97-7.45 1.96-4.02 2.47-6.2 1.97-8.5-.38-1.69-1.86-4.48-3.3-6.2-3-3.55-9.4-6.79-13.52-6.82-1.53 0-4.28.6-6.12 1.37a20.68 20.68 0 0 0-5.98 4.25 20.5 20.5 0 0 0-3.77 6.25c-.82 2.5-.82 4.37 0 7.13.62 2.06 2.37 5 3.88 6.52a22.9 22.9 0 0 0 5.76 4.1c4.56 2.02 11.27 1.73 15.11-.65zm886.74-2.2a18.54 18.54 0 0 0 5.25-5.15 15.97 15.97 0 0 0 1.9-7.03c.01-5.37-3.97-11.9-8.6-14.08-4.36-2.08-8.34-1.51-13.51 1.9-3.97 2.63-6.93 7.84-6.93 12.18 0 1.53.92 4.7 2.05 7.02 2.05 4.24 4.81 6.74 8.5 7.7 2.98.77 7.6-.27 11.34-2.54zm175.9-113.9c4.92-4.95 8.61-9.32 8.2-9.73-.4-.4-2.71.34-5.12 1.66l-4.39 2.4-10.85-10.12a578.78 578.78 0 0 1-15.35-14.78c-4-4.13-4.23-4.6-2-4.1 4 .91 50.51 6.59 53.7 6.56 2.32-.03 4.35-1.61 10.27-8.06 4.06-4.42 7.08-8.33 6.72-8.7-.36-.36-2.64.42-5.05 1.74l-4.4 2.4-5.33-4.68a980.3 980.3 0 0 1-21.2-19.97l-15.89-15.3 1.79-3.74c.98-2.05 1.42-4.08.99-4.5-.44-.42-4.84 3.52-9.78 8.75-6.18 6.56-8.49 9.62-7.4 9.84.86.18 2.88-.61 4.49-1.75 1.6-1.14 3.4-2.08 3.98-2.08.88 0 16.9 14.77 31.18 28.74 3.3 3.23 3.36 3.4 1 2.86-1.38-.3-16.25-2.14-33.06-4.07l-30.55-3.5-2.62 3.07-2.63 3.07 11.14 10.7a4663.2 4663.2 0 0 1 23.13 22.41l11.98 11.71-1.72 3.61a29.05 29.05 0 0 0-1.71 4.07c0 1.53 2.52-.51 10.48-8.52zm-1240.63-30.53c27.51-10.68 32.53-12.33 35.13-11.59 1.85.53 3.25.5 3.62-.1.76-1.24-14.21-16.63-15.21-15.63-.41.41.03 2.38.99 4.39.95 2 1.37 3.99.93 4.42-.44.43-4.19 2.12-8.32 3.76l-7.51 2.99-2.36-2.16a183.6 183.6 0 0 1-8.41-8.98l-6.06-6.82 3.9-7.44c2.16-4.1 4.5-7.45 5.22-7.46.71 0 2.6.66 4.2 1.49 1.59.82 3.13 1.11 3.43.64.64-1.04-18.46-21.5-19.29-20.67-.32.32-.47 2.26-.32 4.3.2 3.05-2.41 9.09-14.67 33.78l-14.92 30.07 3.1 3.72c1.71 2.04 3.4 3.72 3.77 3.73.37 0 15.12-5.58 32.78-12.43zm-17.23-10.47l6.83-13.03 6.76 6.69c3.72 3.67 6.76 6.96 6.76 7.3 0 .33-4.4 2.32-9.77 4.43a235.34 235.34 0 0 0-13.59 5.73l-3.82 1.9zm1320.91-31.57c5.88-2.88 13.5-10.51 16.64-16.67 1.03-2.02 2.4-6.55 3.05-10.07 1-5.4.92-7.41-.48-12.91a46.42 46.42 0 0 0-5.16-11.79c-1.92-2.9-6.19-7.26-9.48-9.69-3.3-2.42-8.35-5.21-11.25-6.2-3-1.02-7.88-1.75-11.38-1.7-4.52.07-7.56.8-11.52 2.79a43.48 43.48 0 0 0-8.74 5.87c-4.59 4.36-8.95 10.83-10.76 15.95-2.2 6.24-1.97 16.25.55 22.97a38.75 38.75 0 0 0 6 10.04 53.53 53.53 0 0 0 7.89 7.2 66.27 66.27 0 0 0 9.85 5.24c4.78 2.02 7.07 2.4 12.57 2.06a30.87 30.87 0 0 0 12.22-3.09zm-14.6-9.98a60.39 60.39 0 0 1-10.6-5.94c-6.57-4.83-14.07-12.97-15.84-17.21-.8-1.9-1.44-5.52-1.44-8.04 0-2.53.63-5.8 1.4-7.3 1.62-3.1 5.05-6.4 8.51-8.2 1.33-.68 4.57-1.24 7.22-1.24 6.3 0 15.52 4.31 23.63 11.07 3.41 2.84 7.56 7.14 9.22 9.54a33.54 33.54 0 0 1 4.16 8.95c.88 3.5.87 5.44-.04 8.19-.65 1.98-2.37 5-3.8 6.71a18.77 18.77 0 0 1-5.9 4.48c-1.8.76-4.98 1.36-7.06 1.35-2.08 0-6.34-1.08-9.47-2.36zm-1336.48 8.5c3.5-1.63 8.33-5.09 11.4-8.17 2.95-2.95 6.5-7.84 7.9-10.91 1.96-4.25 2.55-7.12 2.5-12.08-.04-3.58-.79-8.44-1.67-10.8a57.3 57.3 0 0 0-5.1-9.51c-3.98-5.95-12.19-14.74-18.16-19.43l-4.04-3.18-8.88 6.94c-4.88 3.81-9.37 6.92-9.97 6.9-.6 0-2.22-.9-3.6-1.97-1.37-1.08-2.84-1.97-3.25-1.98-.41 0-.75.43-.75 1 0 .77 9.12 12.96 18.62 24.87.15.2.76.05 1.34-.3.73-.46.63-1.52-.3-3.36-3.28-6.45-3.2-6.67 4.28-12.64 3.85-3.07 7.48-5.59 8.06-5.59 1.89 0 9.17 7.3 11.14 11.16 2.53 4.96 2.5 13.05-.09 18.74-1.08 2.4-4.63 6.96-7.88 10.14-3.24 3.17-8.73 7.18-12.18 8.9-4.76 2.39-7.62 3.15-11.82 3.15-3.54 0-7.07-.75-9.8-2.07a28.29 28.29 0 0 1-7.47-5.7c-3.84-4.37-7.9-12.78-7.91-16.39-.01-1.44.89-3.76 2-5.17 1.1-1.41 1.73-3.26 1.39-4.14-.34-.87-.95-1.59-1.37-1.59-.42 0-2.5 1.4-4.65 3.11-2.14 1.71-4.73 3.7-5.74 4.42-1.76 1.24-1.64 1.72 2.36 9.4 4.79 9.22 14.78 20.63 21.47 24.55 6.45 3.79 14.12 5.67 20.59 5.06 3.03-.3 8.24-1.8 11.58-3.36zm1402.08-65.14c4.17-6.3 7.35-11.82 7.07-12.29-.3-.46-1.87.11-3.51 1.28-1.64 1.17-3.77 1.92-4.74 1.67-.96-.25-12.03-7.32-24.59-15.71l-22.84-15.25.66-4.43c.37-2.47.26-4.43-.24-4.43-1.04 0-16.24 22.5-16.24 24.03 0 .56.33 1 .75 1 .4 0 1.87-.91 3.25-1.99s3.05-1.97 3.71-1.98c.66 0 11.48 6.79 24.04 15.11 12.56 8.33 23.2 15.49 23.67 15.91.45.42.36 2.47-.22 4.55-1.04 3.78-.57 6.4.88 4.81.41-.46 4.17-5.99 8.35-12.28zm-1473.96 6.43l-.3-4.5 24-15.45c18.07-11.63 24.38-15.22 25.54-14.51.85.5 2.51 1.62 3.7 2.48 1.19.85 2.38 1.19 2.64.74.27-.44-5.34-9.82-12.46-20.84a4092.12 4092.12 0 0 1-13.7-21.28c-.57-.95-2.36-.61-7.51 1.43-4.8 1.9-6.68 3.14-6.46 4.26.24 1.2 1.64 1.56 6.09 1.56 3.17 0 6.1.48 6.49 1.06 4.71 6.97 10.23 16.44 10.22 17.56 0 .78-4.7 4.46-10.43 8.18-5.73 3.72-10.64 6.76-10.91 6.76-.27 0-2.8-3.6-5.63-8l-5.14-8.02 2.23-3.01c1.6-2.16 1.92-3.33 1.15-4.1-.77-.77-3.18.3-8.46 3.73l-7.75 5.05c-.2.13-.12.9.19 1.7.43 1.12 1.38 1.26 4.14.64l3.6-.8 4.59 7.1c2.53 3.9 4.8 7.64 5.06 8.3.25.68-3.4 3.72-8.32 6.93-4.83 3.15-9.26 5.9-9.84 6.12-.57.22-3.41-3.38-6.3-8-2.9-4.6-5.26-8.94-5.26-9.61 0-.67.95-2.57 2.12-4.21 1.5-2.1 1.81-3.3 1.07-4.05-.74-.74-2.35-.28-5.38 1.55-2.38 1.43-4.93 3-5.67 3.5-1.03.7 1.72 5.66 11.97 21.57 7.32 11.37 13.7 20.67 14.16 20.67.47 0 .72-2.03.56-4.5zm1507.21-60.64c8.11-14.34 14.58-26.24 14.38-26.44-.21-.19-3.47-2.04-7.24-4.1-5.55-3.05-7.03-3.5-7.73-2.37-.6.97.2 2.48 2.6 4.95 1.92 1.95 3.48 4.3 3.48 5.2 0 .92-1.6 4.4-3.56 7.73-3.3 5.61-3.73 5.99-5.76 4.93-1.21-.63-12.46-6.97-25-14.1-12.52-7.11-22.77-13.25-22.75-13.63 0-.38.41-2.38.9-4.45 1.66-7.17-1.44-4-8.72 8.93-3.93 6.98-6.9 13.1-6.58 13.6.31.51 1.84-.3 3.4-1.8 1.92-1.83 3.52-2.53 4.92-2.17 1.15.3 12.66 6.54 25.59 13.86l23.5 13.3-3.09 5.57c-1.7 3.06-3.84 6.34-4.75 7.29-1.5 1.57-2.09 1.6-6.34.32-4.07-1.23-4.85-1.22-5.9.04-.66.8-1.03 1.6-.81 1.78 1.04.87 13.5 7.62 14.06 7.63.36 0 7.29-11.72 15.4-26.07zm-1545.85-1.36l-.99-4.6 9.15-4.88c23.76-12.68 40.57-21.17 41.91-21.17.81 0 2.3.9 3.29 2 1 1.1 2.42 2 3.16 2 .74 0 1.35-.26 1.35-.57 0-.32-2.52-5.5-5.6-11.53-3.08-6.02-6.03-10.67-6.57-10.34-.87.54-.58 3.79.76 8.58.36 1.3-4.17 4.07-20.46 12.56l-20.92 10.9 2.4-4.79c1.32-2.63 7.76-16.08 14.31-29.9l11.9-25.1-2.03-3.45a32.53 32.53 0 0 0-2.2-3.45c-.08 0-12.74 6.54-28.13 14.53-15.4 7.99-28.22 14.52-28.5 14.52-.27 0-1.72-1.18-3.22-2.61-1.5-1.44-3.2-2.45-3.76-2.26-1.3.46 9.9 22.1 11.74 22.7.93.3 1.18-.15.8-1.43-.3-1.03-.83-3.46-1.17-5.4l-.62-3.5 18.27-9.51c10.04-5.23 18.52-9.62 18.84-9.77.32-.14-5.2 11.58-12.28 26.05l-12.87 26.3 5.17 10.4c3.57 7.2 5.49 10.09 6.2 9.37.71-.7.73-2.53.07-5.65zm1581.23-63.95c1.48-3.3 1.66-4.64.79-5.94-.63-.92-11.23-12.32-23.56-25.34-16.35-17.25-22.6-24.5-23.06-26.8-.35-1.71-1.09-3.27-1.64-3.46-1.18-.4-10.03 18.49-9.1 19.42.36.36 1.91-.56 3.45-2.03 1.54-1.47 3.24-2.68 3.78-2.68.54 0 3.62 2.67 6.84 5.93 4.18 4.22 5.68 6.41 5.22 7.62-.36.93-2.55 5.97-4.88 11.2l-4.23 9.5-7.53-.66c-4.14-.37-8.3-.89-9.25-1.16-1.43-.41-1.62-1.27-1.12-4.94 1.27-9.26-2.18-4.23-10.88 15.86-1.14 2.63-1.77 5.09-1.4 5.46.36.36 1.89-.05 3.38-.92 2.5-1.46 5.19-1.4 32.78.68a1948.7 1948.7 0 0 0 34.27 2.39c4.03.12 4.3-.06 6.14-4.13zm-25.37-10.47c-7.7-.79-14.16-1.6-14.36-1.79-.2-.2 1.5-4.31 3.77-9.15l4.12-8.8 10.49 10.45c9.1 9.08 11.34 11.45 10.24 10.86-.14-.08-6.56-.78-14.26-1.57zm-1568.31-13.37a47.2 47.2 0 0 0 10.02-5.22 44.93 44.93 0 0 0 7.94-7.62 34.92 34.92 0 0 0 4.75-9.38 41.64 41.64 0 0 0 1.53-9.79c0-2.55-.72-7.09-1.6-10.08a44.36 44.36 0 0 0-14.3-21.54c-3.22-2.68-3.44-2.73-4.72-.98-1.2 1.63-.84 2.4 3.13 6.82 5.43 6.03 8 13.64 7.13 21.05a28.95 28.95 0 0 1-3.19 9.38c-1.43 2.44-4.71 6-7.3 7.9a54.73 54.73 0 0 1-10.2 5.63c-3.93 1.56-7.8 2.21-13.52 2.27-6.75.07-8.6-.28-11.78-2.25a22.34 22.34 0 0 1-6.2-6.51c-2.7-4.6-4.13-11.29-3.2-15 .34-1.32 2.42-3.65 4.63-5.19 2.22-1.53 4.02-3.06 4.01-3.4a5.78 5.78 0 0 0-.86-1.96c-.68-1.06-2.4-.69-8.6 1.89l-7.74 3.22.65 4.63c1.08 7.72 4.5 16.86 8.65 23.06 2.16 3.23 5.39 6.99 7.17 8.35 4.69 3.56 9.31 5.78 14.1 6.75 2.3.47 6.43.62 9.18.33 2.76-.28 7.4-1.35 10.32-2.36zm1619.05-39.98l3.63-10.98-20.85-17.44-20.86-17.43 9.19-.61c5.05-.34 17.17-.91 26.92-1.28l17.74-.66 3.97-11.88c2.32-6.93 3.52-11.88 2.87-11.88-.6 0-2.28 1.41-3.72 3.14l-2.62 3.13-27.5-8.92-27.5-8.92-.32-3.98c-.18-2.19-.7-4.36-1.16-4.83-.46-.47-2.55 4.36-4.64 10.73-4.6 13.95-4 16.2 1.94 7.26 1.2-1.8 2.28-1.55 24.01 5.65l22.75 7.53-5.27.58c-2.9.33-14.73 1.08-26.3 1.68-11.57.6-22 1.28-23.19 1.52-1.27.26-2.57 1.66-3.2 3.43l-1.03 2.98 22.47 18.72c12.37 10.29 22.48 18.82 22.48 18.96 0 .37-19.69-5.87-34.06-10.8l-12.52-4.29-.3-4.32c-.2-2.65-.76-4.17-1.45-3.94-1.4.47-10.23 26.67-9.3 27.6.38.38 1.98-.9 3.55-2.82l2.86-3.5 27.36 9.1 27.37 9.08.3 4.18c.18 2.46.82 4.19 1.53 4.19.68 0 2.86-4.94 4.85-10.98zm-1674.75-25.31l.31-4.24 27.47-8.45 27.48-8.45 2.8 3.36c1.55 1.85 3.12 3.05 3.5 2.67.39-.39-2.63-11.57-6.7-24.85l-7.4-24.15-5.04.61c-2.78.33-6.06.61-7.3.62-1.58 0-2.26.6-2.26 1.99 0 1.35.88 2.18 2.76 2.6 7.82 1.72 7.57 1.45 11.05 11.95 1.8 5.45 3.07 10.47 2.81 11.14-.26.67-5.63 2.84-11.94 4.8-6.3 1.97-11.89 3.58-12.4 3.58-.51 0-2.11-3.94-3.56-8.76l-2.63-8.76 2.45-2.56c2.38-2.5 3.22-4.94 1.7-4.97-.42 0-4.71 1.2-9.55 2.67-4.9 1.5-8.63 3.17-8.43 3.77.2.6 1.75 1.22 3.46 1.4 1.7.16 3.54.84 4.07 1.5 1.52 1.87 6.1 17.14 5.36 17.84-.77.7-21.44 7.03-21.71 6.64-.1-.14-1.38-4.15-2.85-8.91-1.46-4.77-2.66-9.59-2.66-10.71 0-1.22 1.23-2.78 3-3.83 1.66-.98 3-2.01 3-2.3a5.3 5.3 0 0 0-.79-1.76c-.59-.93-2.16-.8-6.74.59-4.35 1.3-5.94 2.25-5.84 3.47.08.92 3.2 11.59 6.92 23.7 4.24 13.77 7.26 22.04 8.07 22.04.8 0 1.4-1.62 1.6-4.24zm1699.77-80.5c3.04-1.55 6.16-6.2 8.36-12.42.83-2.36 2.88-10.86 4.55-18.9 1.67-8.05 3.3-15.65 3.61-16.9.88-3.48-2.16-2.87-3.65.74-.84 2.03-1.93 2.99-3.38 2.97-1.17-.04-14.3-2.62-29.17-5.77l-27.05-5.73-.3-4.25c-.2-2.56-.81-4.25-1.56-4.25-.8 0-2.23 4.8-3.96 13.27-1.5 7.3-2.7 13.84-2.7 14.53.01 2.26 1.93 1.3 3.51-1.76 1.02-1.97 2.32-3 3.78-3 1.23 0 13.91 2.48 28.19 5.51 14.27 3.03 26.28 5.5 26.68 5.5.99 0-.77 7.63-2.68 11.66a11.67 11.67 0 0 1-5.12 4.92c-3.07 1.46-4.34 1.53-8.79.54-3.48-.78-6.15-2.16-8.1-4.2-2.6-2.7-2.9-3.72-2.9-9.47 0-3.54-.38-6.45-.84-6.45-1.07 0-35.85 15.1-37.34 16.22-1.28.95-4.84 17.73-3.96 18.61.32.32 1.82-.58 3.33-2.01 1.5-1.43 9.66-5.79 18.1-9.7 8.45-3.9 15.53-7.1 15.73-7.1.2 0 .67 1.7 1.03 3.76.8 4.56 3.9 10.18 6.75 12.25 3.32 2.41 8.94 3.95 12.22 3.34 1.65-.3 4.2-1.16 5.66-1.91zm-1729.76-29c.29-2.5.8-4.84 1.14-5.18.66-.66 51.7-9.22 55.27-9.27 1.39-.03 2.61 1.12 3.74 3.48 1.64 3.45 3.7 4.7 3.7 2.25-.01-1.52-2.8-19.4-3.52-22.53-.29-1.24-.9-2.26-1.36-2.26-.46 0-1.24 2.37-1.73 5.26l-.9 5.26-19.53 3.2a2437.58 2437.58 0 0 0-22.92 3.83c-3.06.56-1.23-1.63 19.28-23.04 18.44-19.25 22.66-24.17 22.6-26.36a14.46 14.46 0 0 0-.75-4.3c-.6-1.4-3.97-1.05-30.23 3.23-16.25 2.65-30.46 4.83-31.57 4.85-1.3.03-2.7-1.22-3.92-3.48-1.04-1.93-2.27-3.5-2.73-3.5-.46 0-.84.78-.84 1.75 0 1.73 2.56 17.65 3.54 22.03.27 1.24.86 2.26 1.3 2.26.44 0 1.22-2.37 1.73-5.26l.94-5.26 19.03-3.19c10.47-1.75 19.78-3.21 20.7-3.25 1.05-.05-.26 1.85-3.6 5.19-2.89 2.9-12.12 12.3-20.51 20.92l-15.26 15.66 1.71 11.13c1.11 7.22 2.15 11.14 2.95 11.14.72 0 1.44-1.9 1.74-4.56zm1735.27-45.67c7.64-2.86 14.34-9.57 17.4-17.45 1.74-4.45 2.34-8.09 2.4-14.46.07-7.34-.3-9.35-2.73-14.52a38.74 38.74 0 0 0-7.83-10.72 38.64 38.64 0 0 0-10.7-6.95c-4.5-1.76-7.83-2.25-15.72-2.3-8.47-.06-10.82.3-15.25 2.3a34.78 34.78 0 0 0-9.36 6.84c-6.12 6.64-8.25 12.21-8.73 22.85-.33 7.4-.03 10 1.7 14.6a39.3 39.3 0 0 0 5.69 9.77c3.99 4.66 10.34 8.74 16.72 10.73 2.32.73 7.92 1.35 12.45 1.39 6.08.05 9.72-.5 13.96-2.08zm-22.69-13.57c-5.37-.9-12.05-3.56-15.84-6.3a17.1 17.1 0 0 1-6.78-16.24 24.23 24.23 0 0 1 2.67-7.45c1.12-1.81 4.07-4.25 6.72-5.56 4.08-2.01 6.2-2.32 15.73-2.3 7.62.04 12.88.59 17.03 1.83 3.3.99 7.72 2.9 9.8 4.27a21.98 21.98 0 0 1 5.76 5.69c1.3 2.12 1.96 5.02 1.97 8.52 0 2.92-.63 6.53-1.4 8.01-3.83 7.36-10.8 10.28-24.02 10.08-5.02-.07-10.26-.32-11.64-.55zM133.18 1028.3c-.38-5.65-1.08-10.68-1.54-11.18-.5-.53-1.3.24-1.9 1.81a15.83 15.83 0 0 0-1.03 4.11c0 .76-.38 1.62-.85 1.9-.46.3-4.52-.68-9-2.15-7.59-2.49-8.2-2.9-8.62-5.72-.25-1.68-.7-7.16-1-12.18l-.53-9.14 7.47-3.13c4.11-1.73 8.07-3.14 8.8-3.14.73 0 1.9 1.58 2.59 3.5.7 1.94 1.69 3.51 2.2 3.51 1.1 0 1.18-4.8.28-18.28-.4-6.04-1.06-9.76-1.74-9.76-.6 0-1.81 1.25-2.68 2.76-1.28 2.24-7.28 5.29-32.8 16.65l-31.23 13.9.01 4.13c.01 2.27.35 4.62.75 5.23.4.6 15.29 5.94 33.06 11.86 25.65 8.53 32.69 11.25 34.06 13.14.95 1.3 2.33 2.4 3.06 2.41 1.07.03 1.2-2 .64-10.23zm-42.54-14.28a648.8 648.8 0 0 0-14.02-4.5c-.27-.03 5.33-2.52 12.47-5.52 7.13-3 13.2-5.21 13.48-4.92.3.28.77 4.78 1.06 9.99l.54 9.42c0-.03-6.09-2.03-13.53-4.47zm1749.9-29.39c0-7.07.3-18.34.65-25.04.5-9.2.36-12.18-.55-12.18-.66 0-1.87 1.58-2.67 3.5l-1.47 3.51h-15.85c-8.72 0-21.96-.29-29.42-.65l-13.57-.65-1.16-3.85c-.63-2.12-1.52-3.86-1.96-3.86-.45 0-1.1 5.07-1.46 11.27-.98 16.98-.86 21.02.58 20.54.69-.23 1.84-2.52 2.57-5.1l1.32-4.67h4.7c2.58 0 8.42.29 12.96.64l8.26.65v18.89l-4 1.58c-2.2.86-4 2.13-4 2.8 0 .84 3.02 1.46 9.46 1.94 5.2.4 9.94.42 10.51.06 1.94-1.2 1.09-2.62-2.45-4.1l-3.5-1.46v-20h12.46c6.85 0 12.62.33 12.81.74.2.42.18 5.61-.03 11.55l-.39 10.8-4.41 1.18c-3.14.84-4.42 1.7-4.42 2.97 0 1.57.96 1.8 7.51 1.8h7.52v-12.86zm-1763.1-23.4c-.24-1.7-1.36-2.46-4.83-3.3l-4.5-1.1-.3-8.72-.28-8.73 27.83.6c15.31.32 28.32.73 28.9.9.58.17 1.62 2.16 2.3 4.43.67 2.26 1.66 4.1 2.19 4.1s.96-2.18.96-4.85c0-2.67.3-9.65.65-15.52.5-8.14.36-10.68-.58-10.68-.68 0-1.97 1.88-2.87 4.17l-1.63 4.16-28.54-.7c-15.7-.37-28.68-.83-28.86-1.01-.19-.18.02-3.89.45-8.23l.78-7.9 5-1.58c3.03-.96 5.14-2.25 5.34-3.26.28-1.45-.77-1.67-8.1-1.67h-8.43l-.66 20.28c-.36 11.16-.66 24.66-.66 30v9.72l5.76.36c3.17.2 6.8.45 8.08.55 1.87.15 2.26-.24 2-2.02zm1763.61-42.2c-1.14-13.93-1.67-17.7-2.49-17.7-.46 0-1.37 2.26-2.03 5.01-.98 4.09-1.6 5.01-3.36 5.02-3 0-29.05 1.84-35.63 2.5l-5.43.56 2.93-2.26c1.6-1.24 11.83-9.85 22.7-19.13l19.8-16.87-.02-4.69c0-2.58-.3-7.75-.65-11.49-.39-4.14-1.06-6.65-1.71-6.43-.6.2-1.54 2.2-2.1 4.47-.58 2.26-1.32 4.39-1.66 4.72-.35.34-12.97 1.49-28.05 2.56a3491.47 3491.47 0 0 1-28.52 1.96c-.6 0-1.85-1.87-2.76-4.19-2.73-6.97-3.66-3.63-2.66 9.58.49 6.53 1.17 12.15 1.5 12.49.88.87 2.48-1.95 2.5-4.4 0-1.13.58-2.8 1.26-3.7 1.02-1.33 5.33-1.92 23.21-3.19 12.08-.86 22.07-1.45 22.2-1.3.13.13-10.76 9.84-24.2 21.57-24.22 21.13-24.46 21.37-24.46 25.3 0 3.9.05 3.95 3.76 3.94 2.06 0 16.15-.9 31.3-1.99 15.15-1.09 28.06-1.98 28.69-1.99.62 0 1.87 1.81 2.76 4.04.92 2.29 2.08 3.78 2.67 3.42.65-.4.82-3.3.45-7.82zm-1708-37.98c.36-4.54.94-11.08 1.3-14.52.45-4.33.3-6.26-.47-6.26-.61 0-1.86 1.46-2.77 3.25a50.96 50.96 0 0 1-1.92 3.57c-.32.37-55.6-4.73-57.2-5.28-.63-.21-1.53-2.04-2.01-4.06-.48-2.02-1.32-3.65-1.87-3.61-.55.03-1.54 5.15-2.2 11.36a287.2 287.2 0 0 0-1.24 14.55c-.04 1.8.38 3.26.92 3.26s1.65-1.58 2.45-3.5c.95-2.27 2.14-3.51 3.37-3.51 3.84 0 55.6 5.07 56.32 5.52.41.25 1.05 2.05 1.41 3.98.36 1.93 1.25 3.52 1.97 3.52.92 0 1.5-2.46 1.95-8.27zm1635.74-41.77c.56-3.5 1.02-4.03 3.89-4.56 1.79-.33 14.52-2.3 28.29-4.38s25.56-3.6 26.2-3.38c.64.22 1.7 1.72 2.38 3.33.67 1.61 1.8 2.93 2.53 2.93.92 0 1.17-.97.8-3.25l-2.19-14.2c-.92-6-2.18-11.1-2.8-11.3-.63-.21-1.39 1.37-1.75 3.66-.5 3.07-1.18 4.15-2.9 4.54-1.23.29-13.05 2.11-26.28 4.05a1510.2 1510.2 0 0 0-26.77 4.09c-2.38.47-2.96.07-4.44-3.04-1.93-4.03-4.91-5.02-4.01-1.32.3 1.24 1.32 7.77 2.27 14.52 1.12 8 2.15 12.27 2.94 12.27.66 0 1.5-1.78 1.84-3.96zm-1645.53 1.28c6.91-2.36 14.5-10.13 17.37-17.82a56.43 56.43 0 0 0 2.78-12.05c.4-4.27.06-7.9-1.12-11.95-.93-3.2-2.75-7.5-4.05-9.56a40.43 40.43 0 0 0-6.62-7.39c-2.34-2-6.77-4.64-9.84-5.87-4.51-1.8-7.63-2.24-16.11-2.26-9.5-.03-11 .22-15.53 2.63a38.59 38.59 0 0 0-8.2 6.01c-1.74 1.84-4.42 5.82-5.94 8.85-2.21 4.4-2.86 7.27-3.2 14.2-.3 6.18.03 10.01 1.12 13.24.86 2.5 2.95 6.58 4.66 9.06a35.72 35.72 0 0 0 7.66 7.65 51.48 51.48 0 0 0 9.74 5c6.8 2.45 20.47 2.58 27.28.26zm-19.2-13.76a72.2 72.2 0 0 1-13.32-4.13c-3.4-1.53-7.29-4.08-8.62-5.67a22.59 22.59 0 0 1-3.6-6.76 18.64 18.64 0 0 1-.5-7.36c.36-1.92 1.66-5 2.9-6.86 1.22-1.85 4.25-4.4 6.73-5.69 4.13-2.13 5.44-2.29 16.02-1.87 8.3.32 13.16 1.04 17.43 2.57 3.25 1.17 7.46 3.3 9.35 4.75a26.73 26.73 0 0 1 5.4 5.76c1.54 2.44 1.9 4.48 1.64 9.19-.24 4.32-1 6.98-2.64 9.29a20.65 20.65 0 0 1-6.32 5.28c-2.42 1.23-6.65 2.2-10.68 2.45-3.67.23-9.88-.2-13.8-.95zm1721.37-42.61c3.8-1.94 5.09-3.68 5.09-6.85 0-.9-1.67-3.34-3.71-5.43-2.04-2.08-4.07-3.8-4.5-3.8-.45 0-.8.65-.8 1.43 0 2.42-4.91 7.41-7.94 8.08-1.73.38-4.4 0-6.7-.97-2.1-.88-4.56-2.27-5.47-3.09-1.46-1.32-1.8-1.3-2.95.08-1.1 1.33-.8 2.09 2.05 5.02a32.58 32.58 0 0 0 7.41 5.47 22.54 22.54 0 0 0 8.88 2.01c2.78 0 6.4-.82 8.64-1.96zM153.69 754.22c1.73-6.27 2.85-11.68 2.5-12.02-.35-.35-1.38.4-2.3 1.66-.9 1.26-2.34 3.22-3.2 4.37-1.54 2.07-1.55 2.07-23.27-3.8-11.95-3.22-21.72-6.09-21.7-6.36.01-.28 13.52-5.84 30.01-12.35l29.99-11.85 1-3.65c.56-2 .68-3.95.28-4.31-.4-.37-13.58-4.17-29.28-8.44-15.7-4.27-29.33-8.17-30.3-8.66-1.23-.63-1.75-2.1-1.75-4.95 0-2.7-.4-3.92-1.2-3.66-1.32.44-8.14 23.83-7.2 24.74.32.31 1.33-.46 2.24-1.72.9-1.26 2.35-3.22 3.2-4.37l1.56-2.08 19.73 5.37c10.85 2.96 19.72 5.6 19.7 5.88 0 .27-6.43 2.92-14.26 5.89-7.84 2.96-19.95 7.6-26.92 10.3l-12.66 4.92-2.95 10.73c-1.86 6.73-2.57 10.88-1.92 11.13.57.22 1.74-.66 2.6-1.95.85-1.3 2.23-3.17 3.05-4.16 1.44-1.73 2.68-1.49 27.05 5.21 14.05 3.87 26.56 7.47 27.8 8 1.7.73 2.25 1.8 2.25 4.33 0 3.55.89 5.24 2.1 3.96.39-.42 2.13-5.9 3.85-12.16zm1639.27.52c3.3-1.52 7.51-4.2 9.35-5.96 1.84-1.76 4.31-5 5.5-7.2 1.8-3.34 2.16-5.7 2.17-14.03 0-9.1-.5-11.79-5.42-29.3-5.52-19.63-7.67-23.54-8.29-15.14l-.3 4.15-26.55 7.36c-14.6 4.05-27.22 7.38-28.05 7.39-.82 0-2.7-1.45-4.18-3.24-1.47-1.8-2.95-2.98-3.3-2.64-1.02 1.02 9.42 37.03 12.31 42.44 3.8 7.12 12.05 14.93 18.42 17.45 4.23 1.67 7.01 2.03 13.81 1.78 6.72-.24 9.78-.89 14.53-3.06zm-30.67-12.16c-3.02-.98-6.02-3.01-8.7-5.9-2.84-3.1-4.69-6.45-6.14-11.14-1.14-3.7-2.07-7.3-2.07-8.03 0-.73 1.46-1.8 3.25-2.37 7.78-2.5 50.25-14.05 50.56-13.74.19.18 1.23 3.44 2.31 7.23 1.09 3.8 1.97 8.96 1.97 11.5 0 6.38-3.47 12.52-9.4 16.6a43.14 43.14 0 0 1-9.97 4.87c-7.7 2.32-16.42 2.7-21.8.98zM176.03 679.22c1.96-5.1 3.16-9.52 2.68-9.81-.48-.3-2.2.93-3.8 2.74l-2.95 3.29-5.77-5.04c-3.17-2.77-6.18-5.7-6.68-6.5-.63-1 .4-4.85 3.25-12.23l4.16-10.76h8.94c6.43 0 8.97.35 9.04 1.25.06.69.02 2.72-.08 4.5-.11 2.14.29 3.26 1.16 3.26.78 0 3.34-5.21 6.18-12.59 2.67-6.93 4.57-12.87 4.22-13.22-.34-.34-2 .19-3.68 1.18-2.83 1.67-5.7 1.78-37.13 1.45l-34.08-.36-1.77 4.67-1.77 4.68 25.42 23.73c16.89 15.77 25.63 24.62 26.05 26.38.86 3.6 1.45 4.48 2.32 3.48.4-.46 2.34-5 4.3-10.1zm-26.3-23.62c-1.94-1.75-6.76-6.1-10.7-9.69l-7.2-6.5 14.21.32c7.82.19 14.33.45 14.46.59.26.25-6.39 17.58-6.96 18.15-.16.17-1.88-1.12-3.81-2.87zm1582.11-15.14c2.65-.8 6.34-2.93 8.2-4.73a20.54 20.54 0 0 0 4.87-8.25c.8-2.73 1.48-8.15 1.5-12.05 0-3.9.43-8.88.94-11.08.51-2.22 2.1-5.02 3.54-6.26 1.44-1.24 3.84-2.26 5.34-2.26s3.78.74 5.06 1.64c1.28.9 3.18 3.49 4.2 5.76a23.28 23.28 0 0 1 1.9 7.83c.02 3.06-.6 4.21-3.48 6.52-3.52 2.8-4.34 4.66-2.53 5.78 1.06.65 10.76-3.1 12.83-4.96 1.01-.92 1.04-2.28.12-6.6-.64-3-2.18-7.7-3.41-10.46-2.48-5.52-7.25-10.82-11.93-13.24-1.68-.86-5.32-1.57-8.1-1.57-2.78 0-6.4.7-8.04 1.55-1.64.85-3.96 2.6-5.17 3.9-1.2 1.3-2.7 3.7-3.33 5.35-.63 1.66-1.53 8.04-2 14.19-.52 6.87-1.48 12.4-2.49 14.35a11.15 11.15 0 0 1-5.17 4.65c-2.74 1.14-4.25 1.23-6.8.39-1.8-.6-4.22-2.1-5.38-3.33-2.43-2.59-5.2-9.77-5.2-13.5 0-1.67 1.37-3.79 4.01-6.23 2.2-2.03 4-4.44 4-5.35 0-.91-.41-1.66-.93-1.66-1.22 0-13.32 5.11-14.48 6.12-1.41 1.23 1.27 12.73 4.44 19a38.7 38.7 0 0 0 7.46 9.72c4.11 3.62 9.03 5.83 13.63 6.12.87.06 3.76-.54 6.4-1.34zM213.9 589.7c6.1-12.18 10.94-22.25 10.77-22.38a468.41 468.41 0 0 0-12.46-8.86c-.63-.38-1.62-.1-2.2.6-.79.94-.16 2.41 2.39 5.64 1.9 2.4 3.45 5.2 3.45 6.24 0 2.04-7.4 17.38-8.81 18.25-.47.29-12.22-5.07-26.11-11.91l-25.26-12.44.67-5.04c.37-2.8.27-5.05-.23-5.05-.49 0-3.93 6.1-7.64 13.54-3.7 7.44-6.74 13.75-6.74 14.02 0 .27.54.49 1.2.49.65 0 2.47-1.22 4.04-2.72l2.84-2.73 26.08 13 26.08 12.98-.64 4.26c-.4 2.72-.24 4.26.43 4.26.58 0 6.05-9.97 12.14-22.15zm1483.9-1.8c2.91-1.03 5.14-2.46 5.33-3.43.26-1.32-.47-1.67-3.5-1.68-2.11 0-4.87-.3-6.14-.64-1.67-.44-3.55-3.09-6.76-9.48-2.45-4.87-4.46-9.5-4.46-10.27 0-.77 5.15-4.08 11.5-7.38l11.51-5.99 4.2 8.2c2.36 4.61 3.9 8.82 3.53 9.62-.36.78-1.4 2.43-2.29 3.67-1.33 1.83-1.38 2.33-.26 2.76.75.28 4.86-1.32 9.13-3.56 4.66-2.44 7.76-4.7 7.76-5.64 0-1.26-.8-1.47-4-1.04l-4 .54-4.48-8.62c-2.46-4.75-4.38-8.69-4.26-8.76 2.07-1.25 19.75-10.48 20.09-10.48.26 0 2.54 3.83 5.07 8.5 2.53 4.68 4.6 9.34 4.6 10.35 0 1.01-1.12 2.9-2.5 4.18-1.86 1.76-2.21 2.67-1.4 3.65.87 1.05 2.25.71 7.06-1.71l5.97-3.02-4.43-8.22a2723.6 2723.6 0 0 1-11.66-22c-3.97-7.57-7.69-13.76-8.26-13.76-.65 0-.8 1.61-.37 4.41l.66 4.41-25.83 13.57-25.83 13.58-2.57-2.46c-2.42-2.33-4.96-3.25-4.96-1.8 0 .64 10.15 20.23 18.74 36.15 2.93 5.44 5.03 8.24 6.13 8.18.92-.04 3.93-.87 6.68-1.83zM245.16 532.26c7.02-11.83 12.76-21.69 12.76-21.91 0-.23-2.5-2.56-5.57-5.18-4.08-3.48-5.88-4.47-6.69-3.65-.81.8-.36 2.47 1.66 6.2l2.77 5.08-5.65 9.46c-3.1 5.2-6.07 9.47-6.59 9.47-.51 0-5.93-2.97-12.04-6.6-10.68-6.33-11.04-6.66-9.7-8.76.75-1.2 3.04-4.95 5.08-8.34 3.7-6.15 3.7-6.16 7.7-5.62 3 .4 3.99.18 3.99-.86 0-1.82-15.25-11.01-16.41-9.89-.95.93-.49 2.35 1.81 5.5 1.34 1.84 1.04 2.7-3.53 10.22l-4.99 8.21-10.02-6.05-10.02-6.05 2.15-3.66c6.8-11.58 8.52-14.18 9.62-14.6.67-.26 2.58-.09 4.24.39 2.22.64 3.32.48 4.2-.58.66-.8 1.02-1.58.8-1.74-.21-.17-2.81-1.77-5.78-3.55-2.96-1.8-5.71-2.89-6.11-2.43-1 1.13-25.06 41.4-25.06 41.95 0 .24.6.44 1.35.44.74 0 2.16-.9 3.16-2s2.39-2.01 3.09-2.01c.7 0 12.38 6.6 25.95 14.67 23.63 14.05 24.66 14.79 24.07 17.28-.34 1.43-.85 3.4-1.14 4.36-.31 1.05.01 1.75.81 1.75.73 0 7.07-9.67 14.1-21.5zm1415.07-4.05c-.59-1.56-.85-3.42-.58-4.13.27-.7 10.69-8.09 23.15-16.41 12.46-8.32 23.29-15.37 24.06-15.66.77-.3 2.6.4 4.07 1.56 1.46 1.15 3.06 2.1 3.53 2.1.48 0 .87-.5.87-1.09 0-.6-2.78-5.1-6.18-10.02-3.4-4.9-6.89-8.93-7.76-8.92-.87 0-12.86 2.42-26.63 5.39-13.77 2.96-25.1 5.33-25.17 5.25-.07-.07 6.8-9.82 15.26-21.67 8.47-11.84 15.4-21.87 15.4-22.29.02-.42-2.99-5.28-6.66-10.8-3.68-5.52-7.05-9.66-7.5-9.21-.46.45-.38 2.37.17 4.28.54 1.9.99 3.8.99 4.22 0 .42-10.86 8-24.14 16.83l-24.15 16.05-3.34-2.55c-1.85-1.4-3.6-2.11-3.93-1.58-.81 1.31 11.64 20.03 13.35 20.06.89.03 1.12-.58.66-1.73a30.1 30.1 0 0 1-1.2-4.81c-.5-3-.11-3.34 19.03-16.28 10.75-7.27 19.84-13.22 20.18-13.22.35 0-.47 1.47-1.82 3.26a1559.2 1559.2 0 0 0-16.54 23.68l-14.08 20.44 2.03 2.85c1.58 2.23 2.57 2.73 4.42 2.26 1.3-.32 14.37-3.19 29.02-6.36 14.66-3.17 26.29-5.43 25.85-5.04-.44.4-9.78 6.7-20.76 14-16.96 11.29-20.23 13.11-21.79 12.15l-3.78-2.34c-1.08-.67-2.24-.94-2.58-.6-.35.35 3.06 6.13 7.56 12.85 5.14 7.67 8.53 11.86 9.13 11.27.6-.6.54-2-.14-3.79zM299.8 451.44c6.06-7.52 12.15-15.64 13.54-18.03a55.2 55.2 0 0 0 4.22-10.3c2.34-8.12 1.52-16-2.5-24.16a36.61 36.61 0 0 0-7.72-10.4 55.06 55.06 0 0 0-10.1-6.74 24.36 24.36 0 0 0-11.65-2.76c-4.74-.06-7.4.54-11.68 2.65a48.2 48.2 0 0 0-10.07 7.05c-2.48 2.37-10 11.15-16.72 19.5-11.52 14.32-13.94 19.07-7.32 14.36 1.6-1.14 3.17-2.07 3.5-2.07.34 0 10.77 8.18 23.2 18.17 16.97 13.65 22.43 18.57 21.96 19.78-.35.89-.9 2.92-1.21 4.5-.37 1.83-.2 2.75.48 2.51.58-.21 6.01-6.54 12.07-14.06zm-25.15-24.14c-16.39-13.16-21.32-17.63-20.71-18.78.44-.82 3.33-4.28 6.41-7.68 6.75-7.44 12.16-9.95 19.3-8.97 2.6.35 6.7 1.6 9.1 2.77 2.42 1.17 7.03 4.56 10.25 7.55 3.23 2.98 6.86 7.48 8.08 10 2.6 5.38 2.9 13.18.7 18.37-1.69 3.97-9.38 14.02-10.73 14.02-.48 0-10.56-7.77-22.4-17.28zm1332.56 17.03c5.63-3.09 7.1-4.93 5.01-6.22-.51-.32-2.85-.15-5.2.38-2.44.55-4.94.59-5.88.08-1.92-1.03-14.02-15.46-14.02-16.73 0-.48 4.54-4.63 10.09-9.22 5.55-4.6 10.45-7.96 10.9-7.48.45.48 3.12 3.67 5.94 7.1 2.82 3.41 5.12 6.7 5.12 7.3 0 .59-.74 2.2-1.65 3.6-1.2 1.83-1.35 2.81-.55 3.62.8.8 3.02-.47 8.16-4.68 7.5-6.13 9.21-9.34 4.3-8.04-1.5.4-3.35.79-4.1.86-.73.07-4.05-3.12-7.37-7.1l-6.03-7.23 2.87-2.4 9.02-7.55 6.15-5.13 6.62 8.1c3.64 4.45 6.62 8.55 6.62 9.1 0 .56-.77 2.32-1.71 3.91-1.27 2.15-1.42 3.2-.59 4.03 1.23 1.23 2.3.66 8.18-4.33l3.21-2.72-15.73-19.07c-8.66-10.48-16.17-19.06-16.69-19.06-.52 0-.63 1-.23 2.25.39 1.24.9 3.38 1.12 4.76.36 2.2-2.04 4.53-20.28 19.53-11.38 9.37-21.53 17.44-22.55 17.94-1.3.63-2.9.34-5.31-.96-1.9-1.02-3.75-1.57-4.11-1.22-.36.36 6.65 9.47 15.57 20.24 8.91 10.78 16.43 19.6 16.7 19.6.27 0 3.16-1.47 6.42-3.26zM359.48 382.37l17.61-18.14-4.16-5.93c-2.28-3.26-4.64-5.76-5.24-5.55-1.17.4-1.2 3.1-.11 8.7.64 3.3.28 3.93-6.5 11.26-3.94 4.27-7.7 7.77-8.36 7.77-.65 0-5.35-4.18-10.43-9.3l-9.25-9.28 6.84-6.8c6.47-6.41 7-6.72 9.46-5.6 1.43.65 3.4.89 4.36.52 1.45-.56.55-1.88-5.13-7.61-5.13-5.17-7.21-6.67-8.15-5.9-1 .84-.92 1.76.39 4.5l1.65 3.46-6.94 6.99-6.93 6.99-8.23-8.19-8.23-8.18 6.56-7.1c3.6-3.9 7.17-7.45 7.93-7.88.79-.45 2.7-.1 4.47.81 2.56 1.33 3.38 1.38 4.66.31 1.37-1.13.96-1.82-3.3-5.57-2.67-2.35-5.1-4.28-5.39-4.27-.29 0-8.13 7.9-17.42 17.57-9.3 9.67-16.62 17.86-16.27 18.2.35.36 2.25-.13 4.22-1.07l3.59-1.7 14.68 13.97A1237.1 1237.1 0 0 1 337 385.88l6.46 6.57-1.7 3.56a28.5 28.5 0 0 0-1.7 4.03c0 1.86 3.95-1.74 19.42-17.67zm1190.54 3.87c-.01-.7-.69-2.13-1.5-3.2a7.47 7.47 0 0 1-1.47-3.67c0-.95 9.11-10.56 20.25-21.35l20.25-19.61 5.3 5.22c2.9 2.87 5.29 5.92 5.29 6.76 0 .85-1 3.44-2.24 5.76-1.78 3.37-1.98 4.48-1 5.47 1 .99 2.37.13 6.75-4.19 3.02-2.99 5.5-5.87 5.5-6.4 0-1.12-40.07-42.04-41.58-42.45-.55-.15-3.46 2.21-6.46 5.25-4.25 4.3-5.2 5.8-4.26 6.73.93.93 2.07.7 5.1-1 2.14-1.2 4.53-2.19 5.3-2.19.77 0 3.84 2.47 6.81 5.48l5.4 5.48-1.93 2.15a1199.18 1199.18 0 0 1-20.7 20.17l-18.77 18.02-3.58-2.11c-1.96-1.16-3.77-2.11-4.02-2.11-.24 0-.44.56-.44 1.23 0 1.33 19.98 21.8 21.27 21.8.42 0 .75-.56.73-1.24zm99.33-8.27c1.55-4.96 2.59-9.69 2.31-10.52-.28-.82-2.04-3.23-3.92-5.35-1.87-2.12-3.89-3.56-4.47-3.2-.64.4-1.06 4.94-1.06 11.5 0 5.95.28 12.26.63 14 1.13 5.62 3.45 3.33 6.5-6.43zm-132.13-43.16a26.89 26.89 0 0 0 6.58-6.96c1.92-3.28 2.24-5 1.88-9.98-.3-4.05-1.67-8.78-4.21-14.52-2.33-5.25-3.81-10.18-3.87-12.86-.08-3.62.39-4.76 2.83-6.86 2.32-2 3.64-2.4 6.36-1.97 1.88.3 4.9 1.68 6.7 3.05a20.03 20.03 0 0 1 5 6.17c1.64 3.44 1.64 3.93.07 8.04-1.56 4.08-1.43 6.43.35 6.43.4 0 2.88-2.47 5.5-5.5l4.75-5.5-2.97-4.32c-3.53-5.13-9.79-10.96-14.22-13.25-1.74-.9-5.53-1.89-8.4-2.19-3.94-.4-6.34-.04-9.76 1.47a22.17 22.17 0 0 0-7.43 5.8c-2.47 3.24-2.9 4.7-2.89 9.9.02 4.76.86 8.1 3.9 15.44 2.27 5.49 3.87 11 3.87 13.32 0 2.96-.7 4.7-2.73 6.82-1.5 1.57-3.87 3.07-5.27 3.34-1.4.27-4 .08-5.8-.42-3.49-.96-10.83-8.17-11.97-11.74-.43-1.38.13-3.77 1.55-6.62 1.84-3.69 2-4.73.95-6-1.12-1.35-1.81-.95-5.42 3.12-7.1 8.02-7.06 7.93-4.67 11.8 3.26 5.28 13.48 14.2 18.27 15.96 2.64.97 6.71 1.47 10.54 1.3 5.06-.22 7.06-.84 10.51-3.27zM435 313.22c9.76-7.79 18.36-14.73 19.1-15.42 1.15-1.05.74-2.43-2.5-8.39-2.5-4.6-4.4-7.02-5.37-6.83-1.56.3-1.6 1-.52 9.25l.65 5-7.23 5.77c-3.98 3.16-7.95 5.74-8.83 5.72-.88-.03-9.03-9.3-18.12-20.63-9.1-11.34-16.9-21.24-17.33-22-.52-.9.14-2.65 1.84-4.87 1.45-1.9 2.36-3.9 2.02-4.45-.33-.55-6 3.36-12.6 8.68-6.59 5.31-11.62 10.03-11.18 10.47.45.45 2.24.31 3.98-.3 1.75-.6 3.58-.95 4.08-.76 1.45.55 36.2 44.05 36.18 45.3-.02.61-.9 2.24-1.99 3.62-1.07 1.38-1.96 2.84-1.98 3.26 0 .41.45.75 1.02.75.57 0 9.02-6.38 18.78-14.17zm1018.9-13.47c0-.33-.95-1.92-2.1-3.54-1.19-1.67-1.83-3.66-1.47-4.58.34-.9 3.38-5.35 6.74-9.89l6.12-8.25 18.51-8.21c14.24-6.31 19.18-8.08 21.4-7.63 1.96.39 2.88.17 2.88-.7 0-.7-3.77-4.07-8.39-7.48-4.62-3.42-8.67-6.22-9.01-6.22-1.24 0-.59 2.24 1.38 4.73 1.1 1.4 2 2.97 2 3.48 0 1.33-26.48 13.92-26.87 12.79-.4-1.13 3.7-28.22 4.37-28.88.26-.26 2.14.05 4.2.68 2.05.62 4.07.8 4.49.38.89-.9-22.17-18.4-23.3-17.69-.42.26-.29 2.02.3 3.91.8 2.64.51 8.1-1.24 23.3l-2.3 19.84-6.47 8.76c-4.04 5.48-7.16 8.77-8.3 8.77-1.02 0-2.98-.44-4.38-.97-1.56-.6-2.75-.6-3.11-.03-.32.52 4.51 4.75 10.73 9.41 10.22 7.66 13.82 9.74 13.82 8.01zm-978.08-18.1c4.7-3.13 8.17-6.06 7.71-6.5-.45-.46-2.36-.39-4.24.15-1.95.56-3.8.6-4.3.11-.48-.48-1.68-4.5-2.67-8.93l-1.8-8.07 9.97-6.63c5.48-3.66 10.3-6.5 10.72-6.33.41.16 3.52 2.33 6.9 4.81 3.39 2.48 6.17 5.11 6.19 5.86.01.74-.92 2.68-2.08 4.31-1.17 1.63-1.85 3.24-1.51 3.57.78.79 23.65-14.44 23.65-15.75 0-.55-1.52-1-3.38-1-2.8 0-8.18-3.44-31.23-19.98L461.9 207.3l-2.9 1.7c-1.58.94-3.47 2.38-4.18 3.2-1.07 1.25-.1 7.1 5.58 34.06 3.78 17.9 6.7 33.68 6.5 35.06-.19 1.38-.69 3.3-1.1 4.26-.46 1.07-.32 1.75.37 1.75.61 0 4.96-2.55 9.65-5.68zm-7.01-30.62c-.23-.7-1.56-6.5-2.96-12.9-1.4-6.39-2.83-12.38-3.2-13.31-.35-.94 4.49 2.2 10.75 6.95 6.27 4.75 11.5 8.94 11.62 9.31.13.37-3.38 3.04-7.78 5.95-5.32 3.5-8.16 4.85-8.43 4zm940.26 4.27a27.22 27.22 0 0 0 6.16-6.43c1.42-2.2 2.87-5.52 3.23-7.4.35-1.88.09-5.3-.58-7.58-.67-2.3-3.15-7.32-5.52-11.17-5.97-9.76-7.54-13.05-7.54-15.85 0-1.33.89-3.55 1.98-4.93a9.3 9.3 0 0 1 4.66-3.04c1.48-.28 4.08-.05 5.79.52 1.7.56 4.78 2.63 6.85 4.6 3.98 3.8 4.65 6.7 2.71 11.79-.78 2.06-.72 2.93.25 3.55.71.45 1.52.83 1.8.84.28 0 2.2-2.7 4.27-6.01 3.62-5.8 3.7-6.12 2.14-8.52-2.07-3.14-9.84-8.88-15.55-11.47-2.44-1.1-6.58-2-9.33-2.01-3.03 0-6.64.8-9.33 2.1a19.5 19.5 0 0 0-6.87 5.87 22.67 22.67 0 0 0-3.05 7.28c-.32 1.95 0 5.28.7 7.4.7 2.13 3.47 7.54 6.16 12.02 2.69 4.48 5.3 9.6 5.81 11.38a9 9 0 0 1-.43 6.5c-.75 1.79-2.4 4-3.69 4.89-1.28.9-4.06 1.63-6.16 1.63-2.11 0-5.06-.64-6.54-1.41-1.5-.78-4.27-3.04-6.17-5.02l-3.46-3.6 1.18-5.64c.65-3.1.94-6.02.65-6.5-1.25-2.03-3.15-.44-6.68 5.6-2.06 3.53-3.75 6.8-3.75 7.28 0 1.12 7.58 8.35 11.72 11.18 5.55 3.8 10.38 5.1 17.92 4.84 5.63-.19 7.84-.75 10.67-2.7zm-826.47-36a40.06 40.06 0 0 0 10.19-6.15c2.49-2.19 5.46-5.92 6.61-8.3a22.72 22.72 0 0 0 2.07-9.25 26.26 26.26 0 0 0-1.86-8.99 22.7 22.7 0 0 0-5.02-6.72 22.03 22.03 0 0 0-6.9-3.7c-2.05-.58-8.6-1.04-14.55-1.05-12.19 0-15.72-1.17-17.64-5.81-.66-1.6-.9-4.11-.53-5.6.37-1.48 2.1-3.78 3.84-5.1 3.86-2.95 11.02-4.7 14.21-3.5a10.1 10.1 0 0 1 4 3.43c1.7 2.61 3.85 3.3 4.91 1.6.33-.54-.83-3.8-2.56-7.27-1.74-3.47-3.25-6.4-3.37-6.54-.11-.13-2.77.42-5.9 1.24a62.08 62.08 0 0 0-10.45 3.91 35.57 35.57 0 0 0-7.94 5.77 27.96 27.96 0 0 0-4.76 7.07 23.67 23.67 0 0 0-1.55 7.6c0 2.14 1.04 5.86 2.32 8.27a14.74 14.74 0 0 0 6.76 6.67c3.74 1.93 6.33 2.34 16.49 2.62 7.64.22 13.13.85 15.02 1.75 1.66.79 3.79 3.08 4.81 5.17 1.52 3.1 1.64 4.33.72 7.11a15.52 15.52 0 0 1-3.35 5.47c-3.05 2.87-8.94 5.2-13.12 5.2-2.8 0-4.11-.77-6.9-4.03-2.37-2.76-3.96-3.83-5.09-3.4-.9.35-1.64.82-1.64 1.05 0 .23 1.61 3.62 3.58 7.53l3.58 7.1 4.18-.5c2.3-.28 6.73-1.47 9.84-2.66zm737.1-12.5a27.8 27.8 0 0 0 6.56-6.56 23.02 23.02 0 0 0 3.15-8.01c.35-2.65-.06-5.68-1.18-8.61-.95-2.49-4.54-8.06-7.97-12.39-3.44-4.32-6.86-9.33-7.6-11.13-1.21-2.92-1.15-3.67.57-6.83 1.09-1.98 3.12-3.93 4.62-4.42 3.95-1.3 10.18.75 14.4 4.74 3.5 3.3 3.62 3.64 2.97 8.35-.54 3.99-.37 5.03.93 5.52 1.2.47 2.38-.98 4.83-5.97l3.24-6.6-3.95-3.41a53.48 53.48 0 0 0-9.51-6.16c-4.48-2.2-6.97-2.74-12.66-2.74-6.05 0-7.7.4-11.25 2.76-2.29 1.51-5.07 4.54-6.19 6.72a21.18 21.18 0 0 0-2.02 8.05c0 2.25.86 5.76 1.9 7.8 1.05 2.05 4.64 7.26 7.99 11.58 3.48 4.5 6.36 9.33 6.73 11.29.37 1.98.1 4.7-.62 6.46-.7 1.67-2.52 3.69-4.07 4.49-1.55.8-4.55 1.45-6.68 1.45-2.56 0-5.44-1-8.58-2.99-2.6-1.65-5.2-4.07-5.8-5.39-.76-1.66-.8-3.82-.11-7.02.54-2.55.85-4.63.69-4.63-.17 0-1.01-.28-1.89-.6-1.2-.47-2.33.99-4.67 5.97-1.7 3.62-2.93 7.36-2.75 8.3.45 2.34 11.84 9.98 17.64 11.84 2.91.93 7.14 1.37 11.02 1.14 4.68-.28 7.3-1.05 10.26-3zm-674.64-17.17c12.12-4.83 22.35-9.05 22.74-9.38.61-.53.2-3.37-1.73-11.87-.32-1.41-1.26-2.26-2.5-2.26-1.61 0-2 .7-2.05 3.76-.04 2.06-.4 4.6-.81 5.64-.47 1.2-4.35 3.32-10.61 5.81-8.03 3.2-10.09 3.69-11.06 2.63-.66-.72-3.07-6.04-5.36-11.83-2.28-5.78-4.15-10.81-4.15-11.17.01-.94 14.51-6.86 16.8-6.86 1.06 0 2.74.9 3.74 2s2.45 2 3.23 2c1.63 0 1.4-.97-2.64-10.81-1.63-3.99-3.43-6.84-4.43-7.03-1.33-.26-1.67.47-1.67 3.64 0 4.35 1.07 3.6-13.13 9.23l-4.62 1.83-4.19-10.6c-2.3-5.83-3.83-10.92-3.4-11.3 1.28-1.1 16.68-7.02 18.27-7.01.8 0 2.72 1.22 4.27 2.7 2.1 2.01 3.1 2.41 3.95 1.57.84-.85.55-2.58-1.16-6.78-1.94-4.8-2.6-5.56-4.4-5.1-1.15.3-11.57 4.35-23.14 9-11.56 4.64-20.8 8.82-20.53 9.29.28.46 2.2.9 4.28.95 2.08.06 3.92.29 4.1.5.17.22 4.9 11.89 10.5 25.94s10.17 26.3 10.17 27.22c0 .92-1.13 2.57-2.5 3.65-2.6 2.04-3.47 4.78-1.26 3.9l23.3-9.26zm620.28-5.08c1.79-3.06 3.25-5.95 3.25-6.43 0-.47-.46-1.15-1.02-1.5-.56-.34-2.77.76-4.9 2.45-2.14 1.7-4.8 3.08-5.9 3.08-2.1 0-18.12-5.74-19.53-7-.97-.87 7.38-24.14 8.88-24.72.59-.22 4.73.99 9.21 2.7 8 3.05 8.14 3.17 8.45 6.79.19 2.3.86 3.78 1.8 3.95 1.07.2 2.45-2.3 4.72-8.47 2.39-6.51 2.9-8.95 2-9.53-.74-.48-2.06.2-3.41 1.72-1.21 1.38-2.87 2.5-3.67 2.5-.8 0-5.08-1.37-9.5-3.06l-8.03-3.07 2.55-6.7c1.4-3.68 3.22-8.61 4.04-10.95a35.95 35.95 0 0 1 1.63-4.26 563 563 0 0 1 10.18 3.8l10.01 3.8.5 4.46c.33 2.9 1 4.47 1.9 4.47.79 0 2.28-2.5 3.44-5.74 1.13-3.16 1.82-5.97 1.54-6.25-.28-.29-10.62-4.3-22.98-8.94-12.35-4.64-22.88-8.17-23.39-7.86-.51.32.5 1.77 2.25 3.24 1.76 1.46 3.19 3.1 3.19 3.65 0 .54-4.45 12.9-9.89 27.47l-9.88 26.48-4.64.3c-2.55.17-4.64.66-4.64 1.08 0 .85 44.64 17.97 47.08 18.06.82.03 2.97-2.46 4.76-5.52zm-543.65-20.58c6.34-2.94 16.02-10.31 16.02-12.2 0-.7-.52-1.8-1.16-2.43-.87-.88-1.88-.55-4.14 1.35a29.56 29.56 0 0 1-17.73 7.16c-5.74.4-7.17.1-12-2.44-3.12-1.64-6.88-4.7-8.69-7.08a46.5 46.5 0 0 1-5.33-9.9 54.98 54.98 0 0 1-2.7-11.8c-.31-3.36-.05-7.97.58-10.3a23.07 23.07 0 0 1 3.83-7.4 22.74 22.74 0 0 1 6.74-5.03c2.4-1.1 6.4-1.85 9.82-1.86 5.72-.03 5.82.03 8.96 4.48 1.77 2.51 3.98 4.51 4.99 4.51 1 0 1.8-.34 1.8-.75s-1.04-4.13-2.32-8.26l-2.31-7.52-5.44.23c-7.21.3-14.31 2-20.6 4.92a48.29 48.29 0 0 0-9.55 6.28 41.64 41.64 0 0 0-7.38 9.25c-2.74 4.95-2.97 6.15-2.97 15.38 0 8.82.32 10.72 2.73 15.87 1.51 3.21 3.94 7.27 5.4 9.01a44.8 44.8 0 0 0 6.45 5.95c6.27 4.6 10.52 5.74 20.47 5.42 7.15-.22 10.16-.81 14.53-2.84zm471.92-7.24a38.39 38.39 0 0 0 9.86-7.23 47.77 47.77 0 0 0 6.83-10.25c2.21-4.78 2.64-7.12 2.67-14.7.02-6.99-.41-9.9-1.94-12.98a33.67 33.67 0 0 0-5.66-7.55 43.15 43.15 0 0 0-9.24-6.3c-3.05-1.5-13.8-4.99-23.89-7.77a3399.76 3399.76 0 0 1-20.1-5.58c-2.92-.87-2 2.04 1.26 3.96 1.65.98 3 2.2 3 2.7s-2.72 10.95-6.06 23.23c-9.95 36.61-8.54 32.83-12.24 32.85-3.17.03-6.64 1.43-5.7 2.33.25.25 8.8 2.75 19 5.56 17.09 4.71 19.23 5.08 27.54 4.76 7.22-.28 10.15-.88 14.67-3.03zm-23.68-3.07c-.55-.18-3.6-.9-6.78-1.61-3.17-.7-6.17-1.77-6.67-2.37-.55-.67 1.88-11.24 6.34-27.63 6.47-23.73 7.44-26.51 9.17-26.23 1.07.18 5.1 1.24 8.95 2.37 5.4 1.58 7.97 3.01 11.16 6.2 4.3 4.3 6.37 9.4 6.35 15.66 0 4.88-2.6 15.36-4.9 19.81-2.47 4.8-7.78 10.2-11.6 11.77-3.27 1.36-10.42 2.56-12.02 2.03zm-378.46-6.72a30.38 30.38 0 0 0 9.4-5.91c2.1-2.1 4.3-5.55 4.89-7.65.58-2.1 1.06-5.88 1.06-8.4 0-2.52-1.8-13.56-4.02-24.54-3.94-19.5-4-20-2.13-21.46a46.03 46.03 0 0 1 3.79-2.64c1.02-.62 1.57-1.44 1.21-1.82-.9-.95-23.93 3.73-24.18 4.92-.11.52 1.57 1.32 3.74 1.77 2.17.45 4.07.94 4.2 1.08.15.14 2.1 9.18 4.32 20.1 2.24 10.9 4.06 22.07 4.06 24.8 0 2.74-.7 6.34-1.57 8-1.76 3.41-8.22 6.84-12.97 6.87-1.66 0-4.57-.8-6.46-1.82a15.58 15.58 0 0 1-5.42-5.67c-1.09-2.1-3.92-13.1-6.28-24.44-2.37-11.35-4.31-21.1-4.33-21.66-.02-.56 1.55-1.87 3.48-2.91 3.52-1.9 4.58-3.58 2.25-3.58-.69 0-7.22 1.2-14.52 2.65-9.21 1.84-13.27 3.06-13.27 4 0 .9 1.22 1.37 3.52 1.37 2.72 0 3.75.52 4.47 2.25.51 1.24 2.76 11.18 4.99 22.08 2.22 10.9 4.9 21.5 5.96 23.54a29.34 29.34 0 0 0 4.89 6.54 24.09 24.09 0 0 0 6.85 4.28c4.95 1.84 14.51 1.08 22.07-1.75zm290.84-13.46c1.69-5.06 1.92-6.87 1.02-7.76-.9-.9-2.09-.1-5 3.3l-3.83 4.47-10.26-1.14c-5.64-.62-10.7-1.57-11.23-2.11-.64-.64-.4-5.28.7-13.35.93-6.8 1.85-12.53 2.05-12.72.47-.47 17.84 1.85 18.46 2.47.26.26.95 1.89 1.52 3.61.57 1.73 1.54 3.3 2.17 3.5 1.24.41 1.97-2.77 2.98-12.99.56-5.66.42-6.76-.85-6.76-.84 0-2.08 1.35-2.77 3-.94 2.28-1.88 3-3.87 3-3.07-.04-16.39-1.89-16.86-2.36-.53-.52 2.01-20.55 2.76-21.76.52-.84 3.01-.83 9.59.03 4.89.63 9.64 1.38 10.56 1.65 1.02.31 1.93 2.05 2.34 4.47.5 2.93 1.15 3.96 2.5 3.96 1.53 0 1.96-1.12 2.54-6.55.39-3.6.54-6.69.33-6.84-.2-.16-10.29-1.5-22.4-3a864.66 864.66 0 0 1-24.3-3.2c-3.64-.78-2.68 1.99 1.36 3.92 3.29 1.56 3.56 2 3.05 4.94-.31 1.77-1.98 14.49-3.71 28.26-1.73 13.77-3.5 25.43-3.96 25.9-.44.47-2.28 1.16-4.08 1.53-1.8.37-3.44 1.17-3.64 1.78-.24.71 3.32 1.56 9.94 2.37 5.67.7 15.94 2.04 22.83 2.99 6.89.95 13.72 1.8 15.2 1.86 2.43.12 2.86-.45 4.86-6.47zm-235.2 3.55c5.66-.57 11.32-1.25 12.56-1.52 1.23-.26 2.25-.9 2.25-1.41 0-.52-1.61-1.24-3.59-1.61-2.32-.44-3.88-1.42-4.43-2.8-.46-1.17-2.02-13.85-3.45-28.18a1367.2 1367.2 0 0 1-2.58-27.29c.02-.86 1.9-1.25 5.97-1.25 3.27 0 7.1.44 8.51.97 1.42.54 3.47 2.46 4.57 4.26 2.43 3.98 2.66 11.64.5 15.84a11.88 11.88 0 0 1-4.3 4.37 28.51 28.51 0 0 1-6.5 2.13c-2.04.38-3.72.88-3.72 1.1 0 .23 6.2 7.44 13.78 16.01l13.77 15.59 8.51-.7c4.69-.37 8.86-.89 9.27-1.14 1.43-.87.73-1.98-2.15-3.41-1.59-.79-8.01-6.99-14.27-13.78-6.26-6.79-11.51-12.72-11.68-13.18-.17-.47.67-1.16 1.86-1.54 3.6-1.14 9.77-7.4 11.01-11.14.7-2.1.88-5.38.47-8.13-.5-3.3-1.62-5.55-3.9-7.84-1.78-1.77-5-3.7-7.18-4.31a36.6 36.6 0 0 0-8.09-1.1c-4.13 0-30.03 2.53-36.21 3.55-1.81.3-3.03.96-2.72 1.46.3.5 2.16 1.21 4.11 1.58 1.95.36 3.72 1.17 3.93 1.79.32.98 5.12 46.27 5.74 54.19.2 2.52-.35 3.3-3.52 5-2.07 1.12-3.76 2.37-3.76 2.78 0 .42 1.1.76 2.46.76 1.36 0 7.1-.47 12.78-1.05zm154.04-6.39c0-.78-1.32-1.71-2.94-2.07-1.61-.35-3.37-1.17-3.9-1.83-.64-.77-.61-10.86.07-28.73.57-15.15 1.33-27.87 1.68-28.27.34-.4 4.22-.4 8.61 0l7.99.72 1.06 5c.67 3.16 1.64 5.13 2.63 5.32.94.18 1.82-.63 2.18-2 .34-1.27.63-5.06.63-8.41l.02-6.11-19.28-.67c-10.6-.37-24.36-.95-30.55-1.3l-11.27-.63v8.73c0 7.62.21 8.7 1.67 8.41 1-.2 2.3-2.3 3.25-5.33 1.52-4.81 1.75-5.02 5.6-5.34 2.2-.17 5.97-.03 8.38.33l4.37.66-.73 22.2c-.4 12.22-1.03 25.13-1.37 28.7l-.64 6.47-3.76.88c-2.07.5-3.75 1.5-3.75 2.26 0 1.05 2.49 1.44 10.77 1.69 5.92.18 12.68.42 15.02.53 3.11.16 4.26-.17 4.26-1.2zm-60.68-.19c.87-.33 1.58-.93 1.58-1.34 0-.4-1.8-1.28-4-1.94-3.73-1.11-4.02-1.46-4.06-4.91-.02-2.05-.43-14.99-.9-28.76-.55-16-.5-25.47.12-26.23.53-.65 2.29-1.48 3.9-1.83 1.62-.36 2.94-1.17 2.94-1.82 0-.85-3.85-1.08-14.27-.84-7.86.19-14.7.74-15.2 1.22-.8.78.34 1.42 6.08 3.42 1.28.44 1.98 10.29 2.84 39.93l.54 18.85-4.02 1.58c-2.2.87-4.02 1.97-4.02 2.43 0 .96 26.02 1.18 28.47.24zm-316.7-17.87c6.21-10.48 7.91-14.57 6.05-14.57-.39 0-3.27 1-6.4 2.2l-5.7 2.22-2.01 10.06c-1.49 7.44-1.7 10.25-.85 10.8.63.4 1.38.73 1.65.72.28 0 3.55-5.15 7.27-11.43zm454.32-55.57c4.03-2.33 7.58-4.9 7.88-5.7.31-.8.4-1.62.2-1.81-.21-.2-3.12-.66-6.47-1.04l-6.09-.7-6.62 7.82c-5.03 5.92-6.36 8.12-5.55 9.1.87 1.05 1.89.84 5.2-1.07l11.45-6.6z"/><path fill="#a5272f" stroke="#a5272f" stroke-width="1.41" d="M902.17 1539.18c61.99-71.2 93.12-113.95 130.84-179.62a918 918 0 0 0 96.33-240.65l1.21-4.95 11.58.31c13.15.36 31.5 3.28 51.12 8.13 21.95 5.43 24.79 5.66 28.18 2.27 1.85-1.86 2.93-4.76 2.93-7.9 0-4.2-1.56-6.65-10.07-15.83-23.36-25.19-34.82-41.36-45.87-64.69-15.31-32.31-20.02-58.8-17.62-99.07 3-50.37 20.88-98.73 60.13-162.63 7.16-11.67 13.82-22.74 14.8-24.6 2.36-4.49.93-12.46-2.97-16.62-3.82-4.07-11.56-4.38-29.5-1.2a579.17 579.17 0 0 1-62.93 7.25l-17.22.92-6-17.52c-19.06-55.7-48.13-117.88-78.6-168.14-20.71-34.15-53.78-81.67-68.49-98.4a477.5 477.5 0 0 1-14.26-17.64 688.82 688.82 0 0 0-21.57-26.06c-6.8-7.8-11.76-14.38-11-14.63 2.21-.74 78.96 25.4 123.85 42.17 101.99 38.13 176.09 70.23 266.52 115.47 70.54 35.29 114.16 59.78 133.62 75.04l7.59 5.94-.65 24.46c-3.55 133.46-17.76 232.29-47.93 333.32-12.64 42.36-25.86 75.35-45.1 112.58-70.7 136.83-205.6 276.67-377.29 391.05-27.52 18.33-73.27 46.64-75.38 46.64-.53 0 1.16-2.43 3.75-5.4z"/></svg>